<?xml version="1.0" encoding="utf-8"?>
<!-- Generator: Adobe Illustrator 21.1.0, SVG Export Plug-In . SVG Version: 6.00 Build 0)  -->
<svg version="1.1" id="Layer_1" xmlns="http://www.w3.org/2000/svg" xmlns:xlink="http://www.w3.org/1999/xlink" x="0px" y="0px"
	 width="900px" height="284px" viewBox="0 0 900 284" enable-background="new 0 0 900 284" xml:space="preserve">
<g>
	<path fill="#0D509D" d="M361.5,122.1H315V117c1.7,0,3.8-0.2,6.5-0.5s4.5-0.7,5.4-1.2c1.5-0.9,2.7-2,3.4-3.2
		c0.7-1.2,1.1-2.7,1.1-4.5V32.8h-1.1l-35.9,87.7h-3.7L256.5,31h-1v61.4c0,5.9,0.4,10.5,1.1,13.6c0.8,3.1,1.9,5.3,3.5,6.7
		c1.1,1,3.3,2,6.7,2.9c3.4,0.9,5.6,1.4,6.7,1.5v5.1h-42.5V117c2.2-0.2,4.6-0.6,7-1.1c2.4-0.5,4.3-1.3,5.7-2.4
		c1.7-1.4,2.9-3.4,3.6-6.2c0.6-2.8,1-7.5,1-14.1V40.6c0-3-0.4-5.5-1.1-7.5c-0.7-1.9-1.8-3.5-3.2-4.7c-1.5-1.3-3.4-2.3-5.6-2.9
		c-2.2-0.6-4.4-1-6.6-1.1v-5.1h35.9l30.1,77.2l25.7-64.6c0.9-2.4,1.7-4.8,2.4-7.4s1-4.3,1.1-5.2h34.3v5.1c-1.4,0-3.2,0.3-5.3,0.7
		c-2.1,0.4-3.7,0.8-4.7,1.1c-1.7,0.6-2.8,1.5-3.4,2.9c-0.6,1.4-0.9,2.8-0.9,4.4v74.2c0,1.7,0.3,3.1,0.9,4.3c0.6,1.2,1.7,2.2,3.4,3
		c0.9,0.5,2.5,0.9,4.7,1.3c2.3,0.4,4.1,0.6,5.4,0.7V122.1z"/>
	<path fill="#0D509D" d="M473.7,122.1H430V117c3.9-0.2,7.1-0.7,9.6-1.5c2.5-0.7,3.8-1.6,3.8-2.7c0-0.4,0-1-0.1-1.6
		c-0.1-0.6-0.2-1.2-0.4-1.7l-8.7-23.1h-36.9c-1.4,3.4-2.5,6.3-3.4,8.8c-0.9,2.5-1.6,4.8-2.3,7c-0.6,2.1-1.1,3.8-1.3,5.1
		c-0.2,1.3-0.4,2.4-0.4,3.2c0,1.9,1.6,3.4,4.7,4.5c3.1,1.1,6.6,1.7,10.5,1.9v5.1h-39.6V117c1.3-0.1,2.9-0.4,4.8-0.8
		c1.9-0.5,3.5-1.1,4.7-1.8c2-1.3,3.5-2.7,4.6-4.1c1.1-1.4,2.1-3.4,3.2-5.9c5.3-12.9,11.1-27.4,17.5-43.5c6.4-16.1,12.1-30.4,17-43
		h5.9l35.1,88.7c0.7,1.9,1.6,3.4,2.5,4.6c0.9,1.2,2.2,2.3,3.9,3.4c1.1,0.7,2.6,1.2,4.4,1.7c1.8,0.5,3.4,0.7,4.6,0.8V122.1z
		 M431.4,80.1l-15.9-39.9l-15.7,39.9H431.4z"/>
	<path fill="#0D509D" d="M543,74.9c2.2,2.4,3.9,5.1,4.9,7.9c1.1,2.9,1.6,6.2,1.6,10c0,9.1-3.4,16.6-10.3,22.5
		c-6.9,5.9-15.4,8.8-25.6,8.8c-4.7,0-9.4-0.7-14.1-2.1c-4.7-1.4-8.7-3.2-12.2-5.2l-3.2,5.3h-5.9l-1-35.2h6c1.2,4.4,2.7,8.3,4.3,11.8
		c1.7,3.5,3.8,6.8,6.6,9.8c2.6,2.9,5.6,5.1,9,6.8c3.4,1.7,7.4,2.5,12,2.5c3.4,0,6.4-0.4,8.9-1.3c2.5-0.9,4.6-2.1,6.2-3.7
		c1.6-1.6,2.8-3.5,3.5-5.6c0.8-2.2,1.1-4.6,1.1-7.4c0-4.1-1.2-7.9-3.6-11.5c-2.4-3.6-5.9-6.3-10.6-8.1c-3.2-1.3-6.9-2.6-11-4.2
		c-4.2-1.5-7.7-2.9-10.7-4.3c-5.9-2.6-10.5-6-13.8-10.3s-4.9-9.7-4.9-16.6c0-3.9,0.8-7.6,2.4-10.9c1.6-3.4,4-6.4,7-9.1
		c2.9-2.5,6.3-4.5,10.2-5.9c3.9-1.4,8-2.1,12.2-2.1c4.8,0,9.2,0.7,13,2.2c3.8,1.4,7.3,3.1,10.5,5.1l3-4.9h5.9l0.6,34.1h-6
		c-1.1-3.9-2.3-7.7-3.7-11.2c-1.4-3.6-3.1-6.8-5.3-9.7c-2.1-2.8-4.7-5-7.8-6.7c-3.1-1.7-6.8-2.5-11.3-2.5c-4.7,0-8.7,1.5-12,4.4
		c-3.3,2.9-5,6.5-5,10.8c0,4.4,1.1,8.1,3.2,11.1c2.1,2.9,5.2,5.3,9.3,7.2c3.6,1.7,7.2,3.2,10.6,4.4c3.5,1.2,6.9,2.5,10.1,4
		c3,1.3,5.8,2.7,8.6,4.3C538.5,71,540.9,72.8,543,74.9z"/>
	<path fill="#0D509D" d="M648.2,47.2h-5.1c-0.4-1.7-1.2-3.8-2.4-6.2s-2.5-4.7-3.9-6.8c-1.5-2.2-3.1-4.2-4.9-5.8
		c-1.8-1.7-3.5-2.6-5.1-2.9c-1.5-0.2-3.5-0.3-5.8-0.4c-2.3-0.1-4.5-0.1-6.5-0.1h-4.3v82.3c0,1.6,0.3,3.1,1,4.4
		c0.7,1.3,1.9,2.4,3.6,3.1c0.9,0.3,2.8,0.8,5.6,1.4c2.8,0.6,5.1,0.9,6.6,0.9v5.1h-49.7V117c1.4-0.1,3.5-0.3,6.3-0.6
		c2.8-0.3,4.8-0.7,5.9-1.1c1.6-0.6,2.8-1.5,3.6-2.7c0.8-1.2,1.1-2.8,1.1-4.7V24.9h-4.3c-1.5,0-3.4,0-5.7,0.1
		c-2.3,0.1-4.4,0.2-6.5,0.5c-1.6,0.2-3.3,1.1-5.1,2.9c-1.8,1.7-3.4,3.7-4.9,5.8s-2.8,4.5-3.9,6.9c-1.1,2.4-1.9,4.5-2.4,6.1h-5.2
		V19.3h91.7V47.2z"/>
	<path fill="#0D509D" d="M745,91.8l-2,30.3h-87.3V117c1.5-0.1,3.5-0.3,5.9-0.6c2.5-0.3,4.1-0.6,4.8-1c1.6-0.7,2.7-1.7,3.3-2.8
		c0.6-1.2,0.9-2.6,0.9-4.4V34.2c0-1.6-0.3-3-0.8-4.2c-0.5-1.2-1.7-2.2-3.4-3c-1.3-0.6-3.1-1.2-5.4-1.7c-2.2-0.5-4-0.8-5.4-0.9v-5.1
		h81.4v24.8h-5.6c-1-3.7-3.1-7.6-6.4-11.7c-3.3-4.1-6.4-6.4-9.4-6.8c-1.5-0.2-3.4-0.3-5.5-0.4c-2.1-0.1-4.5-0.1-7.3-0.1h-16.5v40.9
		h11.9c3.8,0,6.6-0.4,8.3-1.1c1.8-0.7,3.3-1.9,4.6-3.5c1.1-1.4,2-3.3,2.8-5.6c0.8-2.3,1.3-4.6,1.5-6.6h5.6v40.3h-5.6
		c-0.2-2.3-0.7-4.8-1.6-7.4c-0.9-2.6-1.8-4.5-2.7-5.6c-1.5-1.9-3.3-3.1-5.2-3.7c-2-0.6-4.5-0.9-7.7-0.9h-11.9v30.8
		c0,3.1,0.2,5.5,0.7,7.3c0.4,1.8,1.3,3.1,2.6,4.1c1.3,0.9,3,1.5,5.3,1.8c2.2,0.3,5.4,0.4,9.5,0.4c1.6,0,3.8,0,6.4,0s4.9-0.1,6.7-0.3
		c1.9-0.2,3.8-0.5,5.8-1.1s3.4-1.2,4.3-2.1c2.3-2.3,4.7-5.8,7.2-10.5s4.1-8.2,4.8-10.4H745z"/>
	<path fill="#0D509D" d="M858.2,122.1h-28.3c-6.3-9.6-11.9-17.9-17-24.9c-5.1-7-10.6-14.2-16.5-21.7h-10.8v32.6
		c0,1.7,0.3,3.2,0.8,4.5c0.5,1.3,1.7,2.3,3.5,2.9c0.9,0.3,2.4,0.7,4.7,0.9s4.1,0.5,5.6,0.5v5.1h-44.5V117c1.2-0.1,2.9-0.3,5.2-0.5
		c2.2-0.2,3.8-0.6,4.7-0.9c1.5-0.6,2.6-1.5,3.2-2.8c0.7-1.2,1-2.8,1-4.6V33.8c0-1.7-0.2-3.2-0.7-4.5c-0.5-1.3-1.7-2.3-3.5-3
		c-1.2-0.4-2.8-0.8-4.8-1.2c-2-0.4-3.7-0.6-5-0.7v-5.1h48.6c4.4,0,8.6,0.4,12.5,1.3c3.9,0.9,7.4,2.3,10.6,4.3
		c3.1,1.9,5.5,4.5,7.3,7.6c1.8,3.1,2.7,6.9,2.7,11.3c0,4-0.6,7.5-1.9,10.5c-1.2,3-3.1,5.7-5.5,7.9c-2.2,2.1-4.9,3.9-8,5.4
		s-6.5,2.8-10.3,3.9c5.2,6.7,9.5,12.4,12.9,17c3.4,4.6,7.6,10.2,12.6,16.7c2.2,2.9,4.1,5,5.9,6.4c1.8,1.4,3.5,2.5,5.2,3.4
		c1.3,0.6,2.9,1.1,4.8,1.4c1.9,0.3,3.5,0.5,4.8,0.6V122.1z M819.2,45.5c0-6.2-1.8-11.2-5.5-14.8c-3.7-3.6-8.8-5.5-15.5-5.5h-12.6
		v44.1h9.7c6.8,0,12.5-2.1,17-6.4C816.9,58.6,819.2,52.8,819.2,45.5z"/>
</g>
<g>
	<path fill="#040707" d="M304.1,197.5h-25.9v-2.9c0.9,0,2.1-0.1,3.6-0.3c1.5-0.2,2.5-0.4,3-0.7c0.9-0.5,1.5-1.1,1.9-1.8
		c0.4-0.7,0.6-1.5,0.6-2.5V147h-0.6l-20,49.6h-2.1l-19-50.6h-0.5v34.7c0,3.4,0.2,5.9,0.6,7.7c0.4,1.7,1.1,3,2,3.8
		c0.6,0.6,1.9,1.1,3.8,1.6c1.9,0.5,3.1,0.8,3.7,0.8v2.9h-23.7v-2.9c1.2-0.1,2.5-0.3,3.9-0.6c1.4-0.3,2.4-0.8,3.2-1.4
		c1-0.8,1.6-1.9,2-3.5c0.4-1.6,0.5-4.2,0.5-8v-29.8c0-1.7-0.2-3.1-0.6-4.2c-0.4-1.1-1-2-1.8-2.7c-0.9-0.7-1.9-1.3-3.1-1.6
		c-1.2-0.4-2.5-0.6-3.7-0.6v-2.9h20l16.8,43.7l14.3-36.5c0.5-1.3,1-2.7,1.3-4.2s0.6-2.4,0.6-2.9H304v2.9c-0.8,0-1.8,0.2-3,0.4
		c-1.2,0.2-2.1,0.4-2.6,0.6c-0.9,0.3-1.6,0.9-1.9,1.6c-0.3,0.8-0.5,1.6-0.5,2.5v41.9c0,1,0.2,1.8,0.5,2.4c0.3,0.7,1,1.2,1.9,1.7
		c0.5,0.3,1.4,0.5,2.6,0.8c1.3,0.2,2.3,0.4,3,0.4V197.5z"/>
	<path fill="#040707" d="M366.6,197.5h-24.4v-2.9c2.1-0.1,3.9-0.4,5.3-0.8s2.1-0.9,2.1-1.5c0-0.2,0-0.5-0.1-0.9
		c-0.1-0.4-0.1-0.7-0.2-0.9l-4.9-13H324c-0.8,1.9-1.4,3.6-1.9,5c-0.5,1.4-0.9,2.7-1.3,3.9c-0.4,1.2-0.6,2.1-0.7,2.9
		s-0.2,1.3-0.2,1.8c0,1.1,0.9,1.9,2.6,2.5s3.7,1,5.9,1.1v2.9h-22.1v-2.9c0.7-0.1,1.6-0.2,2.7-0.5c1.1-0.3,2-0.6,2.6-1
		c1.1-0.7,2-1.5,2.6-2.3s1.2-1.9,1.8-3.3c2.9-7.3,6.2-15.5,9.7-24.6s6.7-17.2,9.5-24.3h3.3l19.5,50.2c0.4,1.1,0.9,1.9,1.4,2.6
		c0.5,0.7,1.3,1.3,2.2,1.9c0.6,0.4,1.5,0.7,2.5,1c1,0.3,1.9,0.4,2.6,0.4V197.5z M343.1,173.7l-8.9-22.6l-8.7,22.6H343.1z"/>
	<path fill="#040707" d="M394.3,197.5h-26.4v-2.9c0.7-0.1,1.8-0.1,3.2-0.2s2.4-0.3,3-0.5c0.9-0.4,1.6-0.8,2-1.5
		c0.4-0.6,0.6-1.5,0.6-2.6v-42.1c0-1-0.2-1.8-0.5-2.4s-1-1.2-2.1-1.6c-0.8-0.3-1.9-0.6-3.1-0.9s-2.3-0.5-3.1-0.5v-2.9h26.4v2.9
		c-0.9,0-1.9,0.1-3.1,0.3s-2.2,0.4-3.1,0.7c-1,0.3-1.7,0.9-2.1,1.6s-0.5,1.6-0.5,2.5v42.1c0,0.9,0.2,1.7,0.6,2.4
		c0.4,0.7,1.1,1.2,2,1.7c0.6,0.2,1.5,0.5,2.8,0.7c1.3,0.3,2.4,0.4,3.3,0.4V197.5z"/>
	<path fill="#040707" d="M461.8,142.2c-0.8,0-2,0.2-3.6,0.7c-1.6,0.4-2.7,0.8-3.4,1.3c-1,0.7-1.7,2-2,3.9c-0.3,1.9-0.5,4.4-0.5,7.4
		v42.6h-3.6l-35.5-47.6v30c0,3.4,0.2,5.9,0.6,7.7c0.4,1.8,1.1,3.1,2,3.9c0.6,0.6,1.9,1.2,3.9,1.7c2,0.5,3.3,0.8,3.9,0.8v2.9h-24
		v-2.9c0.7-0.1,2-0.3,3.8-0.8c1.8-0.5,2.9-0.9,3.3-1.3c1-0.8,1.6-1.9,2-3.5c0.4-1.6,0.5-4.3,0.5-8.1v-28.6c0-1.3-0.2-2.5-0.7-3.8
		c-0.4-1.3-1-2.2-1.8-2.9c-1-0.9-2.3-1.7-4-2.3c-1.7-0.6-3.1-1-4.1-1v-2.9h16.7l32.9,44.3V156c0-3.4-0.2-6-0.7-7.8
		c-0.4-1.8-1.1-3-1.9-3.6c-0.8-0.5-2-1-3.8-1.5s-3.1-0.8-4-0.8v-2.9h23.8V142.2z"/>
	<path fill="#040707" d="M514.2,155.1h-2.8c-0.2-1-0.7-2.2-1.3-3.5s-1.4-2.6-2.2-3.8c-0.8-1.3-1.7-2.4-2.7-3.3
		c-1-0.9-1.9-1.5-2.8-1.6c-0.9-0.1-1.9-0.2-3.2-0.2c-1.3-0.1-2.5-0.1-3.6-0.1H493v46.5c0,0.9,0.2,1.7,0.6,2.5c0.4,0.8,1.1,1.3,2,1.7
		c0.5,0.2,1.5,0.5,3.1,0.8c1.6,0.3,2.8,0.5,3.7,0.5v2.9h-27.7v-2.9c0.8-0.1,1.9-0.2,3.5-0.3c1.6-0.2,2.7-0.4,3.3-0.6
		c0.9-0.4,1.6-0.9,2-1.5c0.4-0.7,0.6-1.6,0.6-2.7v-46.9h-2.4c-0.9,0-1.9,0-3.2,0.1c-1.3,0-2.5,0.1-3.6,0.3c-0.9,0.1-1.9,0.7-2.8,1.6
		c-1,1-1.9,2.1-2.7,3.3c-0.8,1.2-1.6,2.5-2.2,3.9s-1.1,2.5-1.3,3.4h-2.9v-15.8h51.1V155.1z"/>
	<path fill="#040707" d="M568.1,180.4l-1.1,17.1h-48.6v-2.9c0.8-0.1,1.9-0.2,3.3-0.3c1.4-0.2,2.3-0.4,2.7-0.6
		c0.9-0.4,1.5-0.9,1.8-1.6s0.5-1.5,0.5-2.5v-41.8c0-0.9-0.2-1.7-0.5-2.4c-0.3-0.7-0.9-1.3-1.9-1.7c-0.7-0.4-1.7-0.7-3-0.9
		c-1.3-0.3-2.2-0.4-3-0.5v-2.9h45.3v14h-3.1c-0.6-2.1-1.7-4.3-3.6-6.6c-1.8-2.3-3.6-3.6-5.2-3.8c-0.9-0.1-1.9-0.2-3.1-0.2
		c-1.2-0.1-2.5-0.1-4-0.1h-9.2v23.1h6.6c2.1,0,3.7-0.2,4.6-0.6c1-0.4,1.8-1.1,2.6-2c0.6-0.8,1.1-1.9,1.5-3.2
		c0.4-1.3,0.7-2.6,0.8-3.8h3.1V179h-3.1c-0.1-1.3-0.4-2.7-0.9-4.2c-0.5-1.5-1-2.5-1.5-3.2c-0.9-1.1-1.8-1.8-2.9-2.1
		c-1.1-0.3-2.5-0.5-4.3-0.5h-6.6v17.4c0,1.7,0.1,3.1,0.4,4.1c0.2,1,0.7,1.8,1.4,2.3c0.7,0.5,1.7,0.9,2.9,1c1.2,0.1,3,0.2,5.3,0.2
		c0.9,0,2.1,0,3.6,0s2.7-0.1,3.8-0.2c1-0.1,2.1-0.3,3.2-0.6s1.9-0.7,2.4-1.2c1.3-1.3,2.6-3.3,4-6s2.3-4.6,2.7-5.9H568.1z"/>
	<path fill="#040707" d="M634.2,142.2c-0.8,0-2,0.2-3.6,0.7c-1.6,0.4-2.7,0.8-3.4,1.3c-1,0.7-1.7,2-2,3.9c-0.3,1.9-0.5,4.4-0.5,7.4
		v42.6h-3.6l-35.5-47.6v30c0,3.4,0.2,5.9,0.6,7.7c0.4,1.8,1.1,3.1,2,3.9c0.6,0.6,1.9,1.2,3.9,1.7s3.3,0.8,3.9,0.8v2.9h-24v-2.9
		c0.7-0.1,2-0.3,3.8-0.8c1.8-0.5,2.9-0.9,3.3-1.3c1-0.8,1.6-1.9,2-3.5c0.4-1.6,0.5-4.3,0.5-8.1v-28.6c0-1.3-0.2-2.5-0.7-3.8
		c-0.4-1.3-1-2.2-1.8-2.9c-1-0.9-2.3-1.7-4-2.3c-1.7-0.6-3.1-1-4.1-1v-2.9h16.7l32.9,44.3V156c0-3.4-0.2-6-0.7-7.8
		c-0.4-1.8-1.1-3-1.9-3.6c-0.8-0.5-2-1-3.8-1.5c-1.7-0.5-3.1-0.8-4-0.8v-2.9h23.8V142.2z"/>
	<path fill="#040707" d="M693.6,197.5h-24.4v-2.9c2.1-0.1,3.9-0.4,5.3-0.8c1.4-0.4,2.1-0.9,2.1-1.5c0-0.2,0-0.5-0.1-0.9
		s-0.1-0.7-0.2-0.9l-4.9-13h-20.6c-0.8,1.9-1.4,3.6-1.9,5c-0.5,1.4-0.9,2.7-1.3,3.9c-0.4,1.2-0.6,2.1-0.7,2.9
		c-0.1,0.7-0.2,1.3-0.2,1.8c0,1.1,0.9,1.9,2.6,2.5c1.7,0.6,3.7,1,5.9,1.1v2.9h-22.1v-2.9c0.7-0.1,1.6-0.2,2.7-0.5
		c1.1-0.3,2-0.6,2.6-1c1.1-0.7,2-1.5,2.6-2.3s1.2-1.9,1.8-3.3c2.9-7.3,6.2-15.5,9.7-24.6s6.7-17.2,9.5-24.3h3.3l19.5,50.2
		c0.4,1.1,0.9,1.9,1.4,2.6c0.5,0.7,1.3,1.3,2.2,1.9c0.6,0.4,1.5,0.7,2.5,1c1,0.3,1.9,0.4,2.6,0.4V197.5z M670,173.7l-8.9-22.6
		l-8.7,22.6H670z"/>
	<path fill="#040707" d="M755.8,142.2c-0.8,0-2,0.2-3.6,0.7c-1.6,0.4-2.7,0.8-3.4,1.3c-1,0.7-1.7,2-2,3.9c-0.3,1.9-0.5,4.4-0.5,7.4
		v42.6h-3.6l-35.5-47.6v30c0,3.4,0.2,5.9,0.6,7.7c0.4,1.8,1.1,3.1,2,3.9c0.6,0.6,1.9,1.2,3.9,1.7s3.3,0.8,3.9,0.8v2.9h-24v-2.9
		c0.7-0.1,2-0.3,3.8-0.8c1.8-0.5,2.9-0.9,3.3-1.3c1-0.8,1.6-1.9,2-3.5c0.4-1.6,0.5-4.3,0.5-8.1v-28.6c0-1.3-0.2-2.5-0.7-3.8
		c-0.4-1.3-1-2.2-1.8-2.9c-1-0.9-2.3-1.7-4-2.3c-1.7-0.6-3.1-1-4.1-1v-2.9h16.7l32.9,44.3V156c0-3.4-0.2-6-0.7-7.8
		c-0.4-1.8-1.1-3-1.9-3.6c-0.8-0.5-2-1-3.8-1.5c-1.7-0.5-3.1-0.8-4-0.8v-2.9h23.8V142.2z"/>
	<path fill="#040707" d="M786.3,198.9c-3.5,0-6.8-0.7-10-2.1c-3.2-1.4-6-3.3-8.5-5.9c-2.4-2.6-4.4-5.7-5.9-9.4
		c-1.5-3.7-2.2-7.9-2.2-12.5c0-4.6,0.7-8.9,2.1-12.7s3.4-7,5.9-9.8c2.5-2.7,5.5-4.8,8.9-6.3c3.4-1.5,7.1-2.2,10.9-2.2
		c2.9,0,5.5,0.4,7.8,1.1c2.3,0.7,4.6,1.7,6.7,3l1.7-2.8h3.3l0.4,20.7h-3.4c-0.4-2-1.1-4.2-2-6.6s-1.9-4.4-3.1-6
		c-1.3-1.9-2.9-3.3-4.7-4.4c-1.8-1.1-3.9-1.6-6.2-1.6c-2.7,0-5.1,0.6-7.4,1.8c-2.3,1.2-4.3,2.9-6,5.2c-1.6,2.2-2.8,5-3.8,8.5
		c-0.9,3.4-1.4,7.2-1.4,11.4c0,3.7,0.5,7.1,1.4,10.2c0.9,3.1,2.3,5.8,4.1,8.2c1.8,2.3,3.8,4.1,6.2,5.5c2.4,1.3,5.1,2,8.1,2
		c2.2,0,4.3-0.3,6.1-1c1.9-0.7,3.5-1.6,4.9-2.8c1.4-1.2,2.6-2.6,3.6-4.1s1.9-3.2,2.6-5l3.1,1.5c-2.4,5.8-5.5,9.9-9.4,12.4
		S791.7,198.9,786.3,198.9z"/>
	<path fill="#040707" d="M864.1,180.4l-1.1,17.1h-48.6v-2.9c0.8-0.1,1.9-0.2,3.3-0.3c1.4-0.2,2.3-0.4,2.7-0.6
		c0.9-0.4,1.5-0.9,1.8-1.6c0.3-0.7,0.5-1.5,0.5-2.5v-41.8c0-0.9-0.2-1.7-0.5-2.4c-0.3-0.7-0.9-1.3-1.9-1.7c-0.7-0.4-1.7-0.7-3-0.9
		c-1.3-0.3-2.2-0.4-3-0.5v-2.9h45.3v14h-3.1c-0.6-2.1-1.7-4.3-3.6-6.6c-1.8-2.3-3.6-3.6-5.2-3.8c-0.9-0.1-1.9-0.2-3.1-0.2
		c-1.2-0.1-2.5-0.1-4-0.1h-9.2v23.1h6.6c2.1,0,3.7-0.2,4.6-0.6s1.8-1.1,2.6-2c0.6-0.8,1.1-1.9,1.5-3.2s0.7-2.6,0.8-3.8h3.1V179h-3.1
		c-0.1-1.3-0.4-2.7-0.9-4.2c-0.5-1.5-1-2.5-1.5-3.2c-0.9-1.1-1.8-1.8-2.9-2.1c-1.1-0.3-2.5-0.5-4.3-0.5h-6.6v17.4
		c0,1.7,0.1,3.1,0.4,4.1s0.7,1.8,1.4,2.3c0.7,0.5,1.7,0.9,2.9,1c1.2,0.1,3,0.2,5.3,0.2c0.9,0,2.1,0,3.6,0s2.7-0.1,3.8-0.2
		c1-0.1,2.1-0.3,3.2-0.6c1.1-0.3,1.9-0.7,2.4-1.2c1.3-1.3,2.6-3.3,4-6s2.3-4.6,2.7-5.9H864.1z"/>
</g>
<rect x="230" y="219" fill="#0A2E4E" width="638" height="51"/>
<g>
	<path fill="#FFFFFF" d="M255.7,239.6c0,2.3-0.8,4-2.4,5.2c-1.6,1.2-3.8,1.8-6.8,1.8h-2.7v8.8h-2.7V233h5.9
		C252.8,233,255.7,235.2,255.7,239.6z M243.8,244.4h2.4c2.4,0,4.1-0.4,5.1-1.1c1.1-0.7,1.6-1.9,1.6-3.6c0-1.5-0.5-2.6-1.5-3.3
		c-1-0.7-2.5-1.1-4.6-1.1h-3V244.4z"/>
	<path fill="#FFFFFF" d="M263.1,246.1v9.3h-2.7V233h6.3c2.8,0,4.9,0.5,6.2,1.6c1.3,1.1,2,2.6,2,4.8c0,3-1.5,5-4.6,6l6.2,10.1h-3.1
		l-5.5-9.3H263.1z M263.1,243.9h3.7c1.9,0,3.3-0.4,4.1-1.1c0.9-0.7,1.3-1.8,1.3-3.3c0-1.5-0.4-2.5-1.3-3.2c-0.9-0.7-2.3-1-4.3-1
		h-3.5V243.9z"/>
	<path fill="#FFFFFF" d="M300.2,244.2c0,3.6-0.9,6.4-2.8,8.5c-1.9,2.1-4.4,3.1-7.7,3.1c-3.4,0-6-1-7.8-3c-1.8-2-2.8-4.9-2.8-8.5
		c0-3.6,0.9-6.5,2.8-8.5c1.8-2,4.5-3,7.8-3c3.3,0,5.9,1,7.7,3.1S300.2,240.6,300.2,244.2z M281.9,244.2c0,3,0.7,5.3,2,6.9
		c1.3,1.6,3.2,2.4,5.8,2.4c2.5,0,4.5-0.8,5.8-2.3c1.3-1.6,1.9-3.9,1.9-6.9c0-3-0.6-5.3-1.9-6.9c-1.3-1.6-3.2-2.3-5.7-2.3
		c-2.5,0-4.5,0.8-5.8,2.4C282.6,238.9,281.9,241.2,281.9,244.2z"/>
	<path fill="#FFFFFF" d="M308,255.4h-2.7V233h12.8v2.3H308v8.2h9.5v2.3H308V255.4z"/>
	<path fill="#FFFFFF" d="M334.7,255.4h-12.8V233h12.8v2.3h-10.1v7.2h9.5v2.3h-9.5v8.2h10.1V255.4z"/>
	<path fill="#FFFFFF" d="M352.7,249.5c0,2-0.7,3.5-2.2,4.6c-1.5,1.1-3.4,1.7-6,1.7c-2.7,0-4.8-0.3-6.3-1v-2.5c0.9,0.4,2,0.7,3.1,0.9
		s2.2,0.3,3.3,0.3c1.8,0,3.1-0.3,4-1s1.3-1.6,1.3-2.8c0-0.8-0.2-1.4-0.5-1.9c-0.3-0.5-0.9-1-1.6-1.4c-0.7-0.4-1.9-0.9-3.4-1.4
		c-2.1-0.7-3.7-1.6-4.6-2.7s-1.4-2.4-1.4-4c0-1.7,0.7-3.1,2-4.1c1.3-1,3.1-1.5,5.3-1.5c2.3,0,4.4,0.4,6.3,1.2l-0.8,2.3
		c-1.9-0.8-3.7-1.2-5.5-1.2c-1.4,0-2.5,0.3-3.3,0.9c-0.8,0.6-1.2,1.4-1.2,2.5c0,0.8,0.1,1.4,0.4,1.9c0.3,0.5,0.8,1,1.5,1.4
		c0.7,0.4,1.8,0.9,3.2,1.4c2.4,0.8,4.1,1.7,5,2.7C352.2,246.7,352.7,247.9,352.7,249.5z"/>
	<path fill="#FFFFFF" d="M370.3,249.5c0,2-0.7,3.5-2.2,4.6c-1.5,1.1-3.4,1.7-6,1.7c-2.7,0-4.8-0.3-6.3-1v-2.5c0.9,0.4,2,0.7,3.1,0.9
		s2.2,0.3,3.3,0.3c1.8,0,3.1-0.3,4-1s1.3-1.6,1.3-2.8c0-0.8-0.2-1.4-0.5-1.9c-0.3-0.5-0.9-1-1.6-1.4c-0.7-0.4-1.9-0.9-3.4-1.4
		c-2.1-0.7-3.7-1.6-4.6-2.7c-0.9-1-1.4-2.4-1.4-4c0-1.7,0.7-3.1,2-4.1c1.3-1,3.1-1.5,5.3-1.5c2.3,0,4.4,0.4,6.3,1.2l-0.8,2.3
		c-1.9-0.8-3.7-1.2-5.5-1.2c-1.4,0-2.5,0.3-3.3,0.9c-0.8,0.6-1.2,1.4-1.2,2.5c0,0.8,0.1,1.4,0.4,1.9s0.8,1,1.5,1.4
		c0.7,0.4,1.8,0.9,3.2,1.4c2.4,0.8,4.1,1.7,5,2.7C369.8,246.7,370.3,247.9,370.3,249.5z"/>
	<path fill="#FFFFFF" d="M375,255.4V233h2.7v22.4H375z"/>
	<path fill="#FFFFFF" d="M403.8,244.2c0,3.6-0.9,6.4-2.8,8.5c-1.9,2.1-4.4,3.1-7.7,3.1c-3.4,0-6-1-7.8-3c-1.8-2-2.8-4.9-2.8-8.5
		c0-3.6,0.9-6.5,2.8-8.5s4.5-3,7.8-3c3.3,0,5.9,1,7.7,3.1C402.9,237.8,403.8,240.6,403.8,244.2z M385.5,244.2c0,3,0.7,5.3,2,6.9
		c1.3,1.6,3.2,2.4,5.8,2.4c2.5,0,4.5-0.8,5.8-2.3s1.9-3.9,1.9-6.9c0-3-0.6-5.3-1.9-6.9s-3.2-2.3-5.7-2.3c-2.5,0-4.5,0.8-5.8,2.4
		C386.2,238.9,385.5,241.2,385.5,244.2z"/>
	<path fill="#FFFFFF" d="M426.8,255.4h-3l-12.5-18.8h-0.1c0.2,2.2,0.3,4.2,0.3,6.1v12.7h-2.5V233h3l12.5,18.7h0.1
		c0-0.3-0.1-1.2-0.1-2.7s-0.1-2.6-0.1-3.2V233h2.5V255.4z"/>
	<path fill="#FFFFFF" d="M447.5,255.4l-2.9-7.1h-9.2l-2.8,7.1H430l9.1-22.5h2.2l9,22.5H447.5z M443.8,246l-2.7-6.9
		c-0.3-0.9-0.7-2-1.1-3.2c-0.2,1-0.6,2.1-1,3.2l-2.7,6.9H443.8z"/>
	<path fill="#FFFFFF" d="M453.4,255.4V233h2.7v20h10.1v2.4H453.4z"/>
	<path fill="#FFFFFF" d="M478.4,233h6.5c3,0,5.2,0.4,6.6,1.3s2,2.3,2,4.2c0,1.3-0.4,2.4-1.1,3.3c-0.8,0.9-1.9,1.4-3.3,1.7v0.2
		c3.5,0.6,5.2,2.4,5.2,5.4c0,2-0.7,3.6-2.1,4.7s-3.3,1.7-5.8,1.7h-8V233z M481.1,242.6h4.4c1.9,0,3.2-0.3,4.1-0.9s1.2-1.6,1.2-2.9
		c0-1.3-0.5-2.2-1.4-2.7c-0.9-0.6-2.4-0.8-4.4-0.8h-3.9V242.6z M481.1,244.8v8.4h4.8c1.8,0,3.2-0.3,4.2-1c0.9-0.7,1.4-1.8,1.4-3.3
		c0-1.4-0.5-2.4-1.4-3.1c-1-0.7-2.4-1-4.4-1H481.1z"/>
	<path fill="#FFFFFF" d="M516.5,233v14.5c0,2.6-0.8,4.6-2.4,6s-3.7,2.2-6.5,2.2s-4.9-0.7-6.4-2.2s-2.3-3.5-2.3-6.1V233h2.7v14.6
		c0,1.9,0.5,3.3,1.6,4.3c1,1,2.6,1.5,4.6,1.5c1.9,0,3.4-0.5,4.5-1.5c1-1,1.6-2.5,1.6-4.3V233H516.5z"/>
	<path fill="#FFFFFF" d="M522.6,255.4V233h2.7v22.4H522.6z"/>
	<path fill="#FFFFFF" d="M531.5,255.4V233h2.7v20h10.1v2.4H531.5z"/>
	<path fill="#FFFFFF" d="M566.5,244c0,3.7-1,6.5-3.1,8.5s-5,2.9-8.9,2.9h-6.3V233h7c3.6,0,6.3,1,8.3,2.9S566.5,240.6,566.5,244z
		 M563.7,244.1c0-2.9-0.8-5.1-2.2-6.6c-1.5-1.5-3.7-2.2-6.7-2.2h-3.9v17.9h3.2c3.2,0,5.6-0.8,7.2-2.3
		C562.9,249.4,563.7,247.1,563.7,244.1z"/>
	<path fill="#FFFFFF" d="M571.6,255.4V233h2.7v22.4H571.6z"/>
	<path fill="#FFFFFF" d="M598.4,255.4h-3l-12.5-18.8h-0.1c0.2,2.2,0.2,4.2,0.2,6.1v12.7h-2.5V233h3l12.5,18.7h0.1
		c0-0.3-0.1-1.2-0.1-2.7c-0.1-1.5-0.1-2.6-0.1-3.2V233h2.5V255.4z"/>
	<path fill="#FFFFFF" d="M614.8,243.7h7.8v10.9c-1.2,0.4-2.4,0.7-3.7,0.9c-1.3,0.2-2.7,0.3-4.4,0.3c-3.5,0-6.2-1-8.1-3
		c-1.9-2-2.9-4.8-2.9-8.5c0-2.3,0.5-4.4,1.4-6.1c1-1.8,2.3-3.1,4.1-4c1.8-0.9,3.9-1.4,6.3-1.4c2.4,0,4.7,0.4,6.8,1.3l-1,2.3
		c-2.1-0.9-4.1-1.3-6-1.3c-2.8,0-5,0.8-6.5,2.4s-2.4,3.9-2.4,6.8c0,3,0.8,5.3,2.3,6.9s3.7,2.3,6.7,2.3c1.6,0,3.1-0.2,4.7-0.5V246
		h-5.1V243.7z"/>
	<path fill="#FFFFFF" d="M646.6,255.4l-7.8-19.9h-0.1c0.1,1.6,0.2,3.4,0.2,5.6v14.3h-2.5V233h4l7.3,18.5h0.1l7.3-18.5h4v22.4h-2.7
		V241c0-1.7,0.1-3.5,0.2-5.4h-0.1l-7.8,19.8H646.6z"/>
	<path fill="#FFFFFF" d="M679.8,255.4l-2.9-7.1h-9.2l-2.8,7.1h-2.7l9.1-22.5h2.2l9,22.5H679.8z M676.1,246l-2.7-6.9
		c-0.3-0.9-0.7-2-1.1-3.2c-0.2,1-0.6,2.1-1,3.2l-2.7,6.9H676.1z"/>
	<path fill="#FFFFFF" d="M685.7,255.4V233h2.7v22.4H685.7z"/>
	<path fill="#FFFFFF" d="M712.6,255.4h-3L697,236.6h-0.1c0.2,2.2,0.2,4.2,0.2,6.1v12.7h-2.5V233h3l12.5,18.7h0.1
		c0-0.3-0.1-1.2-0.1-2.7c-0.1-1.5-0.1-2.6-0.1-3.2V233h2.5V255.4z"/>
	<path fill="#FFFFFF" d="M725.9,255.4h-2.7v-20.1H716V233h17.2v2.3h-7.3V255.4z"/>
	<path fill="#FFFFFF" d="M749.4,255.4h-12.8V233h12.8v2.3h-10.1v7.2h9.5v2.3h-9.5v8.2h10.1V255.4z"/>
	<path fill="#FFFFFF" d="M772.4,255.4h-3l-12.5-18.8h-0.1c0.2,2.2,0.2,4.2,0.2,6.1v12.7h-2.5V233h3l12.5,18.7h0.1
		c0-0.3-0.1-1.2-0.1-2.7c-0.1-1.5-0.1-2.6-0.1-3.2V233h2.5V255.4z"/>
	<path fill="#FFFFFF" d="M793.1,255.4l-2.9-7.1H781l-2.8,7.1h-2.7l9.1-22.5h2.2l9,22.5H793.1z M789.4,246l-2.7-6.9
		c-0.3-0.9-0.7-2-1.1-3.2c-0.2,1-0.6,2.1-1,3.2L782,246H789.4z"/>
	<path fill="#FFFFFF" d="M816.9,255.4h-3l-12.5-18.8h-0.1c0.2,2.2,0.2,4.2,0.2,6.1v12.7H799V233h3l12.5,18.7h0.1
		c0-0.3-0.1-1.2-0.1-2.7c-0.1-1.5-0.1-2.6-0.1-3.2V233h2.5V255.4z"/>
	<path fill="#FFFFFF" d="M833,235c-2.5,0-4.5,0.8-6,2.5c-1.5,1.6-2.2,3.9-2.2,6.7c0,2.9,0.7,5.2,2.1,6.8s3.4,2.4,6,2.4
		c1.6,0,3.4-0.3,5.5-0.8v2.3c-1.6,0.6-3.5,0.9-5.9,0.9c-3.4,0-6-1-7.8-3c-1.8-2-2.8-4.8-2.8-8.5c0-2.3,0.4-4.3,1.3-6.1
		c0.9-1.7,2.2-3.1,3.8-4c1.7-0.9,3.6-1.4,5.9-1.4c2.4,0,4.5,0.4,6.3,1.3l-1.1,2.2C836.5,235.4,834.7,235,833,235z"/>
	<path fill="#FFFFFF" d="M856.2,255.4h-12.8V233h12.8v2.3h-10.1v7.2h9.5v2.3h-9.5v8.2h10.1V255.4z"/>
</g>
<g>
	<g>
		<g>
			<path fill="#0D509D" d="M112.4,18c0,0-85.1,120.9-85.1,174.7c0,44.5,38.1,80.6,85.1,80.6s85.1-36.1,85.1-80.6
				C197.5,138.9,112.4,18,112.4,18z"/>
		</g>
	</g>
</g>
<g>
	<g>
		<path fill="#FFFFFF" d="M193.1,194.9l-13-1V167c0-2.1-0.8-3.9-1.8-4.3l-21.3-9.1v-35.7c0-1.8-0.6-3.4-1.5-4.1l-39.6-30.9
			c0,0-0.4-0.3-0.9-0.3c-0.5,0-0.9,0.3-0.9,0.3l-39.6,30.9c-0.9,0.7-1.5,2.3-1.5,4.1v35.7l-21.3,9.1c-1.1,0.5-1.8,2.3-1.8,4.3v26.9
			l-13,1c-1.3,0.1-2.3,2-2.3,4.4v51.6c0,1.9,0.6,3.6,1.6,4.2l78,48.6c0,0,0.3,0.2,0.7,0.2c0.4,0,0.8-0.2,0.8-0.2l78-48.6
			c1-0.6,1.6-2.3,1.6-4.2v-51.6C195.3,197,194.3,195,193.1,194.9z M50.8,238.8c0,0.4-0.1,0.9-0.3,1.2c-0.1,0.2-0.3,0.3-0.5,0.3
			c-0.1,0-0.1,0-0.2,0l-11.4-4.4c-0.4-0.1-0.6-0.7-0.6-1.4v-8.8c0-0.4,0.1-0.8,0.3-1.1c0.2-0.3,0.4-0.4,0.6-0.3l11.4,3.1
			c0.4,0.1,0.7,0.7,0.7,1.5L50.8,238.8L50.8,238.8L50.8,238.8z M50.8,218.6c0,0.4-0.1,0.8-0.3,1.1c-0.1,0.2-0.3,0.4-0.5,0.4
			c0,0,0,0-0.1,0l-11.4-1.8c-0.4-0.1-0.7-0.7-0.7-1.5V208c0-0.4,0.1-0.8,0.2-1c0.2-0.3,0.4-0.4,0.6-0.4L50,207
			c0.4,0,0.8,0.7,0.8,1.5L50.8,218.6L50.8,218.6z M60.5,231.3c0,0.4-0.1,0.8-0.3,1.1c-0.1,0.2-0.3,0.4-0.5,0.4c0,0-0.1,0-0.1,0
			l-5.1-1.4c-0.4-0.1-0.7-0.7-0.7-1.5v-21.3c0-0.4,0.1-0.8,0.2-1.1c0.2-0.3,0.4-0.4,0.6-0.4l5.1,0.2c0.4,0,0.8,0.7,0.8,1.5V231.3
			L60.5,231.3z M60.5,197.6c0,0.8-0.3,1.4-0.8,1.5l-5.1,0.4c0,0,0,0,0,0c-0.2,0-0.4-0.1-0.5-0.4c-0.2-0.3-0.2-0.7-0.2-1.1v-21.3
			c0-0.7,0.3-1.3,0.7-1.5l5.1-1.6c0.2-0.1,0.5,0.1,0.6,0.3c0.2,0.3,0.3,0.7,0.3,1.1V197.6z M72.6,234.7c0,0.4-0.1,0.8-0.3,1.1
			c-0.1,0.2-0.3,0.4-0.5,0.4c0,0-0.1,0-0.1,0l-6.4-1.8c-0.4-0.1-0.7-0.7-0.7-1.5v-23.8c0-0.4,0.1-0.8,0.2-1.1
			c0.2-0.3,0.4-0.4,0.6-0.4l6.4,0.3c0.4,0,0.8,0.7,0.8,1.5L72.6,234.7L72.6,234.7z M72.6,196.6c0,0.8-0.3,1.4-0.8,1.5l-6.4,0.5
			c0,0,0,0,0,0c-0.2,0-0.4-0.1-0.5-0.4c-0.2-0.3-0.2-0.7-0.2-1.1v-23.8c0-0.7,0.3-1.3,0.7-1.5l6.4-2c0.2-0.1,0.5,0.1,0.6,0.3
			c0.2,0.3,0.3,0.7,0.3,1.1L72.6,196.6L72.6,196.6L72.6,196.6z M109.3,244.7c0,0.4-0.1,0.8-0.3,1.1c-0.1,0.2-0.3,0.4-0.5,0.4
			c0,0-0.1,0-0.1,0l-29.4-8c-0.4-0.1-0.7-0.7-0.7-1.5v-27.1c0-0.4,0.1-0.8,0.2-1.1c0.2-0.3,0.4-0.4,0.6-0.4l29.4,1.2
			c0.4,0,0.8,0.7,0.8,1.5L109.3,244.7L109.3,244.7L109.3,244.7z M109.3,193.8c0,0.8-0.3,1.4-0.8,1.5l-29.4,2.3c0,0,0,0,0,0
			c-0.2,0-0.4-0.1-0.5-0.4c-0.2-0.3-0.2-0.7-0.2-1.1V169c0-0.7,0.3-1.3,0.7-1.5l29.4-9.2c0.2-0.1,0.5,0.1,0.6,0.3
			c0.2,0.3,0.3,0.7,0.3,1.1L109.3,193.8L109.3,193.8L109.3,193.8z M109.3,142.8c0,0.7-0.3,1.3-0.6,1.4l-29.4,12.6
			c-0.1,0-0.1,0-0.2,0c-0.2,0-0.4-0.1-0.5-0.3c-0.2-0.3-0.3-0.7-0.3-1.2v-27.1c0-0.6,0.2-1.2,0.5-1.4l29.4-19.5
			c0.2-0.2,0.5-0.1,0.7,0.2c0.2,0.3,0.3,0.7,0.3,1.2V142.8z M133.5,241.6c0,0.7-0.3,1.4-0.7,1.5l-11.3,3.1c0,0-0.1,0-0.1,0
			c-0.2,0-0.4-0.1-0.5-0.4c-0.2-0.3-0.3-0.7-0.3-1.1v-33.9c0-0.8,0.3-1.5,0.8-1.5l11.3-0.4c0.2,0,0.4,0.1,0.6,0.4
			c0.2,0.3,0.2,0.7,0.2,1.1L133.5,241.6L133.5,241.6z M133.5,194.6c0,0.4-0.1,0.8-0.2,1.1c-0.1,0.3-0.3,0.4-0.5,0.4c0,0,0,0,0,0
			l-11.3-0.9c-0.4,0-0.8-0.7-0.8-1.5v-33.9c0-0.4,0.1-0.8,0.3-1.1c0.2-0.3,0.4-0.4,0.6-0.3l11.3,3.5c0.4,0.1,0.7,0.7,0.7,1.5
			L133.5,194.6L133.5,194.6z M133.5,147.7c0,0.4-0.1,0.9-0.3,1.2c-0.1,0.2-0.3,0.3-0.5,0.3c-0.1,0-0.1,0-0.2,0l-11.3-4.9
			c-0.4-0.2-0.6-0.7-0.6-1.4v-33.9c0-0.5,0.1-0.9,0.3-1.2c0.2-0.3,0.5-0.4,0.7-0.2L133,115c0.3,0.2,0.5,0.8,0.5,1.4L133.5,147.7
			L133.5,147.7z M151.6,236.6c0,0.7-0.3,1.4-0.7,1.5l-8.4,2.3c0,0-0.1,0-0.1,0c-0.2,0-0.4-0.1-0.5-0.4c-0.2-0.3-0.3-0.7-0.3-1.1v-29
			c0-0.8,0.3-1.5,0.8-1.5l8.4-0.3c0.2,0,0.4,0.1,0.6,0.4c0.2,0.3,0.2,0.7,0.2,1.1L151.6,236.6L151.6,236.6z M151.6,196.1
			c0,0.4-0.1,0.8-0.2,1.1c-0.1,0.3-0.3,0.4-0.5,0.4c0,0,0,0,0,0l-8.4-0.7c-0.4,0-0.8-0.7-0.8-1.5v-29c0-0.4,0.1-0.9,0.3-1.1
			c0.2-0.3,0.4-0.4,0.6-0.3l8.4,2.6c0.4,0.1,0.7,0.7,0.7,1.5V196.1L151.6,196.1z M151.6,155.4c0,0.4-0.1,0.9-0.3,1.2
			c-0.1,0.2-0.3,0.3-0.5,0.3c-0.1,0-0.1,0-0.2,0l-8.4-3.6c-0.4-0.2-0.6-0.8-0.6-1.4v-29c0-0.5,0.1-0.9,0.3-1.2
			c0.2-0.3,0.5-0.3,0.7-0.2l8.4,5.6c0.3,0.2,0.5,0.8,0.5,1.4V155.4L151.6,155.4z M176.2,229.9c0,0.7-0.3,1.4-0.7,1.5l-17.3,4.7
			c0,0-0.1,0-0.1,0c-0.2,0-0.4-0.1-0.5-0.4c-0.2-0.3-0.3-0.7-0.3-1.1V222c0-0.8,0.3-1.4,0.7-1.5l17.3-2.7c0.2,0,0.4,0.1,0.6,0.4
			c0.2,0.3,0.3,0.7,0.3,1.1L176.2,229.9L176.2,229.9L176.2,229.9z M176.2,208.6c0,0.8-0.3,1.5-0.8,1.5l-17.3,0.7c0,0,0,0,0,0
			c-0.2,0-0.4-0.1-0.6-0.4c-0.2-0.3-0.2-0.7-0.2-1.1v-12.7c0-0.4,0.1-0.8,0.2-1.1c0.2-0.3,0.4-0.4,0.6-0.4l17.3,1.4
			c0.4,0,0.8,0.7,0.8,1.5L176.2,208.6L176.2,208.6L176.2,208.6z M176.2,187.3c0,0.4-0.1,0.8-0.3,1.1c-0.1,0.2-0.3,0.4-0.5,0.4
			c0,0-0.1,0-0.1,0l-17.3-3.4c-0.4-0.1-0.7-0.7-0.7-1.5v-12.7c0-0.4,0.1-0.8,0.3-1.1c0.2-0.3,0.4-0.4,0.6-0.3l17.3,5.4
			c0.4,0.1,0.7,0.7,0.7,1.5V187.3L176.2,187.3z M186.9,236.4c0,0.7-0.3,1.3-0.6,1.4l-4,1.5c-0.1,0-0.1,0-0.2,0
			c-0.2,0-0.4-0.1-0.5-0.3c-0.2-0.3-0.3-0.7-0.3-1.1v-9.9c0-0.7,0.3-1.4,0.7-1.5l4-1.1c0.2-0.1,0.5,0.1,0.6,0.3
			c0.2,0.3,0.3,0.7,0.3,1.1L186.9,236.4L186.9,236.4z M186.9,217.6c0,0.8-0.3,1.4-0.7,1.5l-4,0.6c0,0,0,0-0.1,0
			c-0.2,0-0.4-0.1-0.5-0.4c-0.2-0.3-0.3-0.7-0.3-1.1v-9.9c0-0.8,0.3-1.5,0.8-1.5l4-0.2c0.2,0,0.4,0.1,0.6,0.4c0.2,0.3,0.2,0.7,0.2,1
			L186.9,217.6L186.9,217.6z M193.7,233.7c0,0.7-0.3,1.3-0.6,1.4l-3.3,1.3c-0.1,0-0.1,0-0.2,0c-0.2,0-0.4-0.1-0.5-0.3
			c-0.2-0.3-0.3-0.7-0.3-1.1v-9c0-0.7,0.3-1.4,0.7-1.5l3.3-0.9c0.2-0.1,0.5,0.1,0.6,0.3c0.2,0.3,0.3,0.7,0.3,1.1L193.7,233.7
			L193.7,233.7z M193.7,216.5c0,0.8-0.3,1.4-0.7,1.5l-3.3,0.5c0,0,0,0-0.1,0c-0.2,0-0.4-0.1-0.5-0.4c-0.2-0.3-0.3-0.7-0.3-1.1v-9
			c0-0.8,0.3-1.5,0.8-1.5l3.3-0.1c0.2,0,0.4,0.1,0.6,0.4c0.2,0.3,0.2,0.7,0.2,1L193.7,216.5L193.7,216.5z"/>
	</g>
</g>
</svg>
