<?xml version="1.0" encoding="utf-8"?>
<!-- Generator: Adobe Illustrator 21.1.0, SVG Export Plug-In . SVG Version: 6.00 Build 0)  -->
<svg version="1.1" id="Layer_1" xmlns="http://www.w3.org/2000/svg" xmlns:xlink="http://www.w3.org/1999/xlink" x="0px" y="0px"
	 width="1080px" height="284px" viewBox="0 0 1080 284" enable-background="new 0 0 1080 284" xml:space="preserve">
<g>
	<path fill="#FFFFFF" d="M159.2,118.8v6.1c-4.7,5.2-8.7,9.4-12,12.6c-3.3,3.2-6.6,6.1-9.8,8.6c-3.3,2.5-6,4.4-8.1,5.4
		c-2.2,1.1-4,1.6-5.5,1.6c-3.7,0-6.6-1.6-9-4.8c-2.3-3.2-3.5-7.4-3.5-12.5c0-5.8,1-11.6,3-17.4c2-5.7,4.9-11.7,8.6-17.8
		c3.7-6.1,8.4-13,13.9-20.6c4.2-5.6,6.2-8.8,6.2-9.5c0-0.4-0.1-0.8-0.4-1.1c-0.2-0.3-0.5-0.4-0.8-0.4c-0.9,0-3.8,2.5-8.7,7.4
		s-11.1,12.1-18.6,21.7c-7.6,9.5-15.8,20.9-24.6,34c-0.5,0.7-2.1,3.1-4.7,7.1c-2.6,4.1-4.5,6.7-5.6,7.9c-1.1,1.2-2,1.8-2.8,1.8
		c-1.4,0-2.6-1.7-3.6-5c-1-3.3-1.5-6.8-1.5-10.6c0-2.3,0.6-4.7,1.9-7.4c1.3-2.6,4-7.4,8.2-14.2c4.2-6.8,7.7-12.6,10.5-17.2
		c2.8-4.7,5.8-10.4,9.1-17c2.3-4.6,4-8.3,5.2-11.1c1.1-2.7,1.7-5.2,1.7-7.3c0-1.8-0.4-2.7-1.3-2.7c-1.9,0-5.4,3-10.6,8.9
		c-5.2,5.9-11.6,14.8-19.2,26.4c-7.6,11.7-15.6,25.2-23.9,40.6c-2.7,5.3-4.6,8.8-5.8,10.6c-1.1,1.8-2.4,2.7-3.8,2.7
		c-1.7,0-3.3-2.2-4.9-6.5c-1.5-4.4-2.3-7.9-2.3-10.6c0-0.9,0.3-1.8,0.9-2.9c6.5-10.3,11.9-19,16.1-26.2c4.2-7.2,7.9-14,11.2-20.5
		c3.3-6.5,5.6-11.8,7.1-16c1.5-4.2,2.2-7.5,2.2-9.9c0-2.5-1-3.8-2.9-3.8c-1.6,0-4.3,1.2-8.1,3.6c-3.8,2.4-8.6,5.7-14.4,9.8
		c-5.8,4.2-10.5,7.3-14,9.5c-3.5,2.2-6.1,3.3-7.9,3.3c-1.6,0-2.4-1.1-2.4-3.2c0-1.2,0.3-4,1-8.5c0.7-4.4,1.4-7.5,2.2-9.3
		c1-2.3,3.7-5.4,8-9.3c4.3-3.9,6.6-5.8,7.1-5.8c0.4,0,0.6,0.2,0.6,0.6c0,0.2-0.2,0.6-0.6,1.1c-2,1.9-3.5,3.5-4.5,4.7
		c-1,1.2-1.6,2.6-1.9,4c9-6.4,17.1-11.3,24.3-14.7c7.1-3.4,12.1-5,14.9-5c1.4,0,2.7,1.1,3.9,3.3c1.2,2.2,2.3,4.7,3.2,7.6
		c0.9,2.9,1.3,4.8,1.3,5.6c0,3-0.6,6.5-1.9,10.6c-1.3,4.1-3,8.8-5.2,14.2c-2.2,5.4-4.9,12.1-8.2,20.2c2.6-3.9,5-7.5,7.3-10.9
		c2.3-3.3,4.6-6.6,6.9-9.7c2.3-3.2,4.6-6.3,7-9.6c3.2-4.4,6.8-8.6,10.8-12.6c4-4,7.7-7.3,11.2-9.8c3.5-2.5,5.8-3.8,7.1-3.8
		c1.7,0,3.3,1.1,4.6,3.4c1.4,2.3,2,4.7,2,7.2c0,1.7-0.9,4.9-2.8,9.7c-1.9,4.8-4.6,10.9-8.2,18.4c-3.6,7.5-8.4,17.1-14.3,28.9
		c5.6-7.1,11.5-14.4,17.6-21.8c6.1-7.5,10.6-13,13.6-16.4c3-3.4,5.4-6.1,7.4-7.9c2.7-2.5,5.4-5.1,8.2-7.9c2.7-2.8,4.9-5.1,6.5-6.7
		c1.6-1.6,3-2.9,4.2-3.8c1.2-0.9,2.4-1.3,3.4-1.3c1.3,0,2.9,1.8,4.9,5.3c2,3.5,2.9,5.8,2.9,6.8c0,1.2-0.6,2.7-1.7,4.4
		c-1.2,1.7-3.6,4.9-7.2,9.5c-6.7,8.5-12.6,17.1-17.5,25.8s-8.7,16.6-11.2,23.8c-2.5,7.2-3.8,12.8-3.8,17c0,2.6,0.4,4.4,1.2,5.6
		c0.8,1.2,2.1,1.8,3.8,1.8c1.6,0,3-0.4,4.4-1.1c1.4-0.7,2.9-1.7,4.5-3c1.7-1.3,3.2-2.5,4.7-3.7c2.1-1.5,4.1-3,6.1-4.7
		c2-1.7,3.6-3,4.7-3.9C157.8,119.9,158.6,119.2,159.2,118.8z"/>
	<path fill="#FFFFFF" d="M167.3,103.5c7.5-8.1,14.8-14.1,21.9-18c7.1-3.9,12.5-5.9,16.4-5.9c1,0,2,0.5,2.9,1.5
		c0.9,1,1.6,2.2,2.1,3.6c0.5,1.3,0.8,2.3,0.8,3c0,1.1-0.3,1.8-1,2.3c-0.7,0.5-1.9,1.1-3.6,1.8c0.3,0.9,0.8,2.1,1.3,3.6
		c0.5,1.5,1,2.6,1.3,3.6c0.3,0.9,0.4,1.7,0.4,2.4c0,1.4-1.2,4-3.6,7.9c-2.4,3.8-4.1,6.7-5,8.5c-1,1.8-1.4,4-1.4,6.7
		c0,4.3,1.7,6.5,5,6.5c3.5,0,8.9-3.8,16.2-11.5v5.4c-12.5,16.4-21.4,24.6-26.8,24.6c-1.9,0-3.3-0.7-4.1-2.2s-1.2-3.7-1.2-6.6
		c0-4.6,1.4-11.3,4.2-20.1c-7.2,9.5-12.6,16.2-16.1,20.2c-3.5,4-6.4,6-8.7,6c-1.1,0-2.4-1.1-4.1-3.3c-1.6-2.2-3.1-5.1-4.3-8.6
		c-1.3-3.5-1.9-7.2-1.9-11c0-2.7,0.2-5,0.7-6.9c0.4-1.8,1.3-3.7,2.6-5.7C162.4,109.2,164.5,106.6,167.3,103.5z M202.8,93.8
		c-12.8,7-22,12.9-27.5,17.7c-5.5,4.9-8.2,9.9-8.2,15c0,1.9,0.3,3.4,0.8,4.6c0.5,1.2,1.3,1.8,2.2,1.8c0.5,0,1.5-0.4,2.9-1.2
		c5.2-3.6,9.9-8.3,14.2-14.2C191.6,111.7,196.8,103.8,202.8,93.8z"/>
	<path fill="#FFFFFF" d="M219.9,121.6v-2.1c12.7-15.9,21.5-27,26.3-33.4c1.1-7.2,3.7-10.8,7.9-10.8c1,0,2.2,0.4,3.3,1.1l0.4,1.7
		c-0.2,0.7-0.3,1.7-0.3,3c0,1.1,0.4,3.2,1.1,6.2c0.7,3,1.3,5.5,1.7,7.6c0.4,2,0.6,4.4,0.6,6.9c0,3.9-0.7,7.6-2.2,11.1
		c-1.5,3.5-3.6,6.9-6.4,10.2c-2.8,3.2-6.4,6.6-10.9,10c1.8,0.4,3.2,0.5,4.2,0.5c2,0,4.2-0.6,6.6-1.8c2.3-1.2,4.7-2.8,7.2-4.8
		c2.4-2,5.3-4.6,8.6-7.9v5.9c-6.3,7.3-12,12.9-17,16.6c-5,3.8-9.3,5.7-12.9,5.7c-4.6,0-8.9-2.3-12.9-7c-2.3-2.8-3.8-5.5-4.3-8.1
		C220.2,129.5,219.9,126,219.9,121.6z M247.6,108.2l-1.3-12.8c-3.1,4.1-9.6,12-19.6,23.6c3,0.8,5,1.8,6.1,3.1
		c1.1,1.3,2.6,3.8,4.6,7.5c3.4-1.6,5.9-3.9,7.7-6.7c1.8-2.8,2.7-6.7,2.7-11.6c0-0.6,0-1.1,0-1.6
		C247.7,109.1,247.6,108.7,247.6,108.2z"/>
	<path fill="#FFFFFF" d="M293.6,73.6h3.2c2.6-5.6,5-9.5,7.1-11.8c2.1-2.3,4.5-3.5,7.3-3.5c2.7,0,4.1,0.7,4.1,2.2
		c0,0.7-1.1,2.6-3.2,5.7c-2.1,3.1-3.7,5.7-4.8,7.8c1.7,0.2,3.2,0.4,4.5,0.6c1.3,0.2,2.3,0.3,3.1,0.4c-2.8,6.2-6.4,12.5-10.6,19
		c-1.4-0.1-2.5-0.2-3.5-0.3c-0.9-0.1-1.9-0.2-2.9-0.3c-1-0.1-2.1-0.2-3.5-0.3c-2.7,5.1-4.9,9.6-6.7,13.6c-1.8,4-3.2,7.7-4.2,11
		c-1,3.3-1.4,6.5-1.4,9.5c0,4,1.4,6.1,4.1,6.1c1.9,0,4.3-1.2,7.4-3.6c3-2.4,7.1-6,12.2-10.9v5.9c-13.3,17.1-23.2,25.7-29.6,25.7
		c-2.2,0-4-1-5.4-3.1c-1.4-2-2-4.7-2-7.9c0-2.2,0.4-4.7,1.1-7.7c0.8-3,2.1-7.5,4.1-13.5c-0.7,0.7-1.3,1.4-2,2.1
		c-0.6,0.7-1.2,1.3-1.7,1.8c-0.5,0.6-1.1,1.1-1.7,1.8c-0.6,0.6-1.2,1.2-1.8,1.9v-6.1c5.2-5.1,11.5-14.2,18.8-27.1
		c-0.7-0.1-1.4-0.1-2.1-0.1c-0.6,0-1.4,0-2.3,0c-2.9,0-5.1,0.2-6.5,0.7c-0.6,0.2-1.1,0.4-1.7,0.6c-0.5,0.2-0.9,0.3-1.1,0.3
		c-0.2,0-0.3-0.2-0.3-0.5c0-1.9,1-4.8,3-8.7c1.6-3.3,3.2-5.7,4.6-7.3c1.5-1.6,3.2-2.6,5.3-3.2C286.9,73.9,289.8,73.6,293.6,73.6z"/>
	<path fill="#FFFFFF" d="M317.4,122.3v2.2c0,3.5,0.7,6.1,2.1,8.1c1.4,1.9,3.3,2.9,5.6,2.9c2.4,0,4.9-0.7,7.5-2
		c2.6-1.3,5.2-3.1,7.7-5.4c2.6-2.2,5.7-5.2,9.4-8.9v5.4c-5.6,8-10.8,14-15.7,18.3c-4.9,4.2-9.9,6.4-14.9,6.4c-4.4,0-7.9-2-10.5-6.1
		c-2.6-4-3.9-9.6-3.9-16.6c0-6.1,1.2-11.7,3.6-16.7S315,99.6,320.4,94c3.8-3.8,7.5-6.7,11.2-8.6s7-2.9,9.9-2.9
		c2.3,0,4.2,0.6,5.5,1.9c1.4,1.3,2,3.1,2,5.7c0,3.7-1.2,7.4-3.5,11c-2.3,3.7-5.9,7.3-10.6,10.9C330.2,115.5,324.4,119,317.4,122.3z
		 M318.2,116.6c4.4-2,8.3-4.6,11.4-7.6c3.2-3,5.5-5.9,7-8.7c1.5-2.8,2.3-4.8,2.3-6.1c0-1.3-0.5-2-1.6-2c-0.9,0-2.3,0.7-4.3,2
		c-2,1.3-4,3.1-6.1,5.3c-2.1,2.2-3.9,4.7-5.5,7.6C319.7,110,318.6,113.2,318.2,116.6z"/>
	<path fill="#FFFFFF" d="M349.1,125.9v-5.7c2.7-3.7,4.7-6.9,6.1-9.6c-1.6-0.6-2.7-1.4-3.4-2.4c-0.7-0.9-1.1-2.3-1.1-4.2
		c0-2.1,0.7-4.8,2.2-8c1.5-3.2,3.3-6.2,5.5-9c2.2-2.8,4.2-4.6,5.9-5.4c0.7-0.4,1.4-0.6,2-0.6c1,0,1.5,0.6,1.5,1.7c0,1-0.8,3-2.3,6.1
		c10.2-1.9,16.6-2.8,19.3-2.8c1,0,1.8,0.1,2.1,0.4c0.8,0.5,1.5,1.8,2.1,3.7c0.5,1.9,0.8,3.9,0.8,5.8c0,1.2-0.5,2.6-1.4,4
		c-0.9,1.4-2.5,3.5-4.7,6.3c-2.6,3.3-4.8,7-6.6,10.9c-1.8,3.9-2.7,6.9-2.7,8.9c0,2.7,1.4,4.1,4.3,4.1c3,0,8.3-3.6,15.7-10.9v5.9
		c-4.1,5.1-7.5,9.1-10.2,12c-2.7,2.9-5.1,5.2-7.4,7c-2.3,1.7-4.3,2.6-6.1,2.6c-2.1,0-3.8-1.1-5.2-3.4c-1.4-2.3-2.1-5.5-2.1-9.8
		c0-2.5,0.5-5.4,1.6-8.6c1.1-3.2,2.7-6.7,4.8-10.5c2.1-3.8,4.5-7.5,7.1-11.3c-1.4,0.4-2.9,0.7-4.7,1.1c-1.7,0.4-3.6,0.8-5.5,1.2
		c-1.9,0.4-3.4,0.7-4.4,1C359.4,113.4,355,120,349.1,125.9z"/>
</g>
<g>
	<path fill="#FFFFFF" d="M485.3,147.8h-26v-3.3c0.9,0,2.1-0.1,3.6-0.3c1.5-0.2,2.5-0.4,3-0.8c0.9-0.6,1.5-1.2,1.9-2
		c0.4-0.7,0.6-1.7,0.6-2.8V91.3h-0.6l-20,55.5h-2.1l-19.1-56.6h-0.5V129c0,3.8,0.2,6.6,0.6,8.6c0.4,2,1.1,3.4,2,4.2
		c0.6,0.6,1.9,1.3,3.8,1.8s3.1,0.9,3.7,0.9v3.3h-23.7v-3.3c1.2-0.1,2.5-0.4,3.9-0.7c1.4-0.3,2.4-0.8,3.2-1.5c1-0.9,1.6-2.2,2-3.9
		c0.4-1.8,0.5-4.7,0.5-8.9V96.2c0-1.9-0.2-3.5-0.6-4.7c-0.4-1.2-1-2.2-1.8-3c-0.9-0.8-1.9-1.4-3.1-1.8c-1.2-0.4-2.5-0.6-3.7-0.7
		v-3.3h20l16.8,48.9l14.4-40.9c0.5-1.5,1-3.1,1.3-4.7c0.4-1.6,0.6-2.7,0.6-3.3h19.2V86c-0.8,0-1.8,0.2-3,0.4
		c-1.2,0.2-2.1,0.5-2.6,0.7c-0.9,0.4-1.6,1-1.9,1.8c-0.3,0.9-0.5,1.8-0.5,2.8v46.9c0,1.1,0.2,2,0.5,2.7s1,1.4,1.9,1.9
		c0.5,0.3,1.4,0.6,2.7,0.8c1.3,0.3,2.3,0.4,3,0.4V147.8z"/>
	<path fill="#FFFFFF" d="M548,147.8h-24.4v-3.3c2.2-0.2,3.9-0.5,5.4-0.9c1.4-0.5,2.1-1,2.1-1.7c0-0.3,0-0.6-0.1-1
		c-0.1-0.4-0.1-0.7-0.2-1.1l-4.9-14.6h-20.6c-0.8,2.1-1.4,4-1.9,5.6c-0.5,1.6-0.9,3.1-1.3,4.4c-0.4,1.3-0.6,2.4-0.7,3.2
		c-0.1,0.8-0.2,1.5-0.2,2c0,1.2,0.9,2.2,2.6,2.8c1.7,0.7,3.7,1.1,5.9,1.2v3.3h-22.1v-3.3c0.7-0.1,1.6-0.2,2.7-0.5
		c1.1-0.3,2-0.7,2.7-1.2c1.1-0.8,2-1.7,2.6-2.6c0.6-0.9,1.2-2.1,1.8-3.7c3-8.2,6.2-17.3,9.8-27.5c3.6-10.2,6.7-19.2,9.5-27.2h3.3
		l19.6,56.1c0.4,1.2,0.9,2.2,1.4,2.9c0.5,0.7,1.3,1.5,2.2,2.2c0.6,0.4,1.5,0.8,2.5,1.1c1,0.3,1.9,0.5,2.6,0.5V147.8z M524.4,121.2
		L515.5,96l-8.8,25.3H524.4z"/>
	<path fill="#FFFFFF" d="M575.8,147.8h-26.5v-3.3c0.7-0.1,1.8-0.2,3.2-0.3c1.4-0.1,2.4-0.3,3-0.5c0.9-0.4,1.6-0.9,2-1.6
		s0.6-1.6,0.6-2.9V92.1c0-1.1-0.2-2-0.5-2.7c-0.3-0.7-1-1.3-2.2-1.8c-0.8-0.4-1.9-0.7-3.1-1c-1.3-0.3-2.3-0.5-3.1-0.6v-3.3h26.5V86
		c-0.9,0-1.9,0.1-3.1,0.3c-1.2,0.2-2.2,0.5-3.1,0.8c-1,0.4-1.8,1-2.1,1.8c-0.4,0.8-0.5,1.7-0.5,2.8v47.1c0,1,0.2,1.9,0.6,2.7
		c0.4,0.8,1.1,1.4,2.1,1.9c0.6,0.2,1.5,0.5,2.8,0.8c1.3,0.3,2.4,0.5,3.3,0.5V147.8z"/>
	<path fill="#FFFFFF" d="M643.5,86c-0.8,0-2,0.3-3.6,0.7s-2.7,0.9-3.4,1.4c-1,0.8-1.7,2.2-2,4.4c-0.3,2.2-0.5,4.9-0.5,8.3v47.7h-3.6
		l-35.6-53.3v33.6c0,3.8,0.2,6.7,0.6,8.7c0.4,2,1.1,3.5,2,4.3c0.6,0.7,1.9,1.3,3.9,1.9c2,0.6,3.3,0.9,3.9,0.9v3.3h-24.1v-3.3
		c0.7-0.1,2-0.4,3.8-0.9c1.8-0.5,2.9-1,3.3-1.4c1-0.9,1.6-2.2,2-3.9c0.4-1.8,0.5-4.8,0.5-9V97.2c0-1.4-0.2-2.8-0.7-4.2
		c-0.4-1.4-1-2.5-1.8-3.3c-1-1-2.3-1.9-4-2.6c-1.7-0.7-3.1-1.1-4.1-1.2v-3.3h16.8l33,49.6v-31c0-3.8-0.2-6.7-0.7-8.7
		c-0.4-2-1.1-3.4-1.9-4.1c-0.8-0.6-2-1.1-3.8-1.7c-1.8-0.6-3.1-0.9-4-0.9v-3.3h23.9V86z"/>
	<path fill="#FFFFFF" d="M696.1,100.4h-2.9c-0.2-1.1-0.7-2.4-1.3-3.9s-1.4-2.9-2.2-4.3c-0.8-1.4-1.7-2.6-2.7-3.7s-1.9-1.7-2.8-1.8
		c-0.9-0.1-1.9-0.2-3.2-0.3c-1.3-0.1-2.5-0.1-3.6-0.1h-2.4v52.1c0,1,0.2,1.9,0.6,2.8c0.4,0.8,1.1,1.5,2,1.9c0.5,0.2,1.5,0.5,3.1,0.9
		c1.6,0.4,2.8,0.6,3.7,0.6v3.3h-27.7v-3.3c0.8-0.1,2-0.2,3.5-0.4c1.6-0.2,2.7-0.4,3.3-0.7c0.9-0.4,1.6-1,2-1.7
		c0.4-0.7,0.6-1.8,0.6-3V86.3h-2.4c-0.9,0-1.9,0-3.2,0.1s-2.5,0.1-3.6,0.3c-0.9,0.1-1.9,0.7-2.8,1.8c-1,1.1-1.9,2.3-2.7,3.7
		c-0.8,1.4-1.6,2.8-2.2,4.4c-0.6,1.5-1.1,2.8-1.3,3.8h-2.9V82.7h51.2V100.4z"/>
	<path fill="#FFFFFF" d="M750.2,128.7l-1.1,19.2h-48.8v-3.3c0.8-0.1,1.9-0.2,3.3-0.4c1.4-0.2,2.3-0.4,2.7-0.6
		c0.9-0.5,1.5-1.1,1.8-1.8c0.3-0.7,0.5-1.7,0.5-2.8V92.2c0-1-0.2-1.9-0.5-2.7s-0.9-1.4-1.9-1.9c-0.7-0.4-1.7-0.7-3-1.1
		c-1.3-0.3-2.3-0.5-3-0.6v-3.3h45.5v15.7h-3.1c-0.6-2.3-1.7-4.8-3.6-7.4s-3.6-4-5.2-4.3c-0.9-0.1-1.9-0.2-3.1-0.3
		c-1.2-0.1-2.5-0.1-4.1-0.1h-9.2v25.9h6.6c2.1,0,3.7-0.2,4.7-0.7s1.8-1.2,2.6-2.2c0.6-0.9,1.1-2.1,1.6-3.6c0.4-1.5,0.7-2.9,0.8-4.2
		h3.1v25.5h-3.1c-0.1-1.5-0.4-3-0.9-4.7c-0.5-1.6-1-2.8-1.5-3.6c-0.9-1.2-1.8-2-2.9-2.3c-1.1-0.4-2.5-0.6-4.3-0.6h-6.6v19.5
		c0,2,0.1,3.5,0.4,4.6c0.2,1.1,0.7,2,1.4,2.6c0.7,0.6,1.7,1,2.9,1.1c1.2,0.2,3,0.3,5.3,0.3c0.9,0,2.1,0,3.6,0s2.7-0.1,3.8-0.2
		c1-0.1,2.1-0.3,3.3-0.7c1.1-0.3,1.9-0.8,2.4-1.3c1.3-1.5,2.6-3.7,4-6.7c1.4-3,2.3-5.2,2.7-6.6H750.2z"/>
	<path fill="#FFFFFF" d="M816.5,86c-0.8,0-2,0.3-3.6,0.7s-2.7,0.9-3.4,1.4c-1,0.8-1.7,2.2-2,4.4c-0.3,2.2-0.5,4.9-0.5,8.3v47.7h-3.6
		l-35.6-53.3v33.6c0,3.8,0.2,6.7,0.6,8.7c0.4,2,1.1,3.5,2,4.3c0.6,0.7,1.9,1.3,3.9,1.9c2,0.6,3.3,0.9,3.9,0.9v3.3h-24.1v-3.3
		c0.7-0.1,2-0.4,3.8-0.9c1.8-0.5,2.9-1,3.3-1.4c1-0.9,1.6-2.2,2-3.9c0.4-1.8,0.5-4.8,0.5-9V97.2c0-1.4-0.2-2.8-0.7-4.2
		c-0.4-1.4-1-2.5-1.8-3.3c-1-1-2.3-1.9-4-2.6c-1.7-0.7-3.1-1.1-4.1-1.2v-3.3h16.8l33,49.6v-31c0-3.8-0.2-6.7-0.7-8.7
		c-0.4-2-1.1-3.4-1.9-4.1c-0.8-0.6-2-1.1-3.8-1.7c-1.8-0.6-3.1-0.9-4-0.9v-3.3h23.9V86z"/>
	<path fill="#FFFFFF" d="M876,147.8h-24.4v-3.3c2.2-0.2,3.9-0.5,5.4-0.9c1.4-0.5,2.1-1,2.1-1.7c0-0.3,0-0.6-0.1-1
		c-0.1-0.4-0.1-0.7-0.2-1.1l-4.9-14.6h-20.6c-0.8,2.1-1.4,4-1.9,5.6c-0.5,1.6-0.9,3.1-1.3,4.4c-0.4,1.3-0.6,2.4-0.7,3.2
		c-0.1,0.8-0.2,1.5-0.2,2c0,1.2,0.9,2.2,2.6,2.8c1.7,0.7,3.7,1.1,5.9,1.2v3.3h-22.1v-3.3c0.7-0.1,1.6-0.2,2.7-0.5
		c1.1-0.3,2-0.7,2.7-1.2c1.1-0.8,2-1.7,2.6-2.6c0.6-0.9,1.2-2.1,1.8-3.7c3-8.2,6.2-17.3,9.8-27.5c3.6-10.2,6.7-19.2,9.5-27.2h3.3
		l19.6,56.1c0.4,1.2,0.9,2.2,1.4,2.9c0.5,0.7,1.3,1.5,2.2,2.2c0.6,0.4,1.5,0.8,2.5,1.1c1,0.3,1.9,0.5,2.6,0.5V147.8z M852.4,121.2
		L843.5,96l-8.8,25.3H852.4z"/>
	<path fill="#FFFFFF" d="M938.4,86c-0.8,0-2,0.3-3.6,0.7s-2.7,0.9-3.4,1.4c-1,0.8-1.7,2.2-2,4.4c-0.3,2.2-0.5,4.9-0.5,8.3v47.7h-3.6
		l-35.6-53.3v33.6c0,3.8,0.2,6.7,0.6,8.7c0.4,2,1.1,3.5,2,4.3c0.6,0.7,1.9,1.3,3.9,1.9c2,0.6,3.3,0.9,3.9,0.9v3.3h-24.1v-3.3
		c0.7-0.1,2-0.4,3.8-0.9c1.8-0.5,2.9-1,3.3-1.4c1-0.9,1.6-2.2,2-3.9c0.4-1.8,0.5-4.8,0.5-9V97.2c0-1.4-0.2-2.8-0.7-4.2
		c-0.4-1.4-1-2.5-1.8-3.3c-1-1-2.3-1.9-4-2.6c-1.7-0.7-3.1-1.1-4.1-1.2v-3.3h16.8l33,49.6v-31c0-3.8-0.2-6.7-0.7-8.7
		c-0.4-2-1.1-3.4-1.9-4.1c-0.8-0.6-2-1.1-3.8-1.7c-1.8-0.6-3.1-0.9-4-0.9v-3.3h23.9V86z"/>
	<path fill="#FFFFFF" d="M969,149.4c-3.5,0-6.9-0.8-10.1-2.3s-6.1-3.7-8.5-6.6c-2.5-2.9-4.4-6.4-5.9-10.5c-1.5-4.1-2.2-8.8-2.2-14
		c0-5.2,0.7-9.9,2.2-14.2c1.4-4.2,3.4-7.9,6-10.9c2.5-3,5.5-5.4,8.9-7c3.4-1.7,7.1-2.5,11-2.5c2.9,0,5.5,0.4,7.9,1.2
		c2.3,0.8,4.6,1.9,6.7,3.3l1.7-3.1h3.3l0.4,23.2h-3.4c-0.4-2.3-1.1-4.7-2-7.4c-0.9-2.6-1.9-4.9-3.1-6.7c-1.3-2.1-2.9-3.7-4.7-4.9
		c-1.8-1.2-3.9-1.8-6.2-1.8c-2.7,0-5.2,0.7-7.5,2c-2.3,1.3-4.3,3.3-6,5.8c-1.6,2.5-2.9,5.6-3.8,9.5c-0.9,3.8-1.4,8.1-1.4,12.8
		c0,4.2,0.5,8,1.4,11.5c1,3.5,2.3,6.5,4.1,9.2c1.8,2.6,3.9,4.6,6.3,6.1c2.4,1.5,5.1,2.2,8.1,2.2c2.2,0,4.3-0.4,6.2-1.2
		c1.9-0.8,3.5-1.8,4.9-3.1c1.4-1.3,2.6-2.9,3.6-4.6c1-1.7,1.9-3.6,2.6-5.6l3.1,1.7c-2.4,6.5-5.5,11.1-9.4,13.8
		C979.1,148,974.5,149.4,969,149.4z"/>
	<path fill="#FFFFFF" d="M1047.1,128.7l-1.1,19.2h-48.8v-3.3c0.8-0.1,1.9-0.2,3.3-0.4c1.4-0.2,2.3-0.4,2.7-0.6
		c0.9-0.5,1.5-1.1,1.8-1.8c0.3-0.7,0.5-1.7,0.5-2.8V92.2c0-1-0.2-1.9-0.5-2.7s-0.9-1.4-1.9-1.9c-0.7-0.4-1.7-0.7-3-1.1
		c-1.3-0.3-2.3-0.5-3-0.6v-3.3h45.5v15.7h-3.1c-0.6-2.3-1.7-4.8-3.6-7.4s-3.6-4-5.2-4.3c-0.9-0.1-1.9-0.2-3.1-0.3
		c-1.2-0.1-2.5-0.1-4.1-0.1h-9.2v25.9h6.6c2.1,0,3.7-0.2,4.7-0.7s1.8-1.2,2.6-2.2c0.6-0.9,1.1-2.1,1.6-3.6c0.4-1.5,0.7-2.9,0.8-4.2
		h3.1v25.5h-3.1c-0.1-1.5-0.4-3-0.9-4.7c-0.5-1.6-1-2.8-1.5-3.6c-0.9-1.2-1.8-2-2.9-2.3c-1.1-0.4-2.5-0.6-4.3-0.6h-6.6v19.5
		c0,2,0.1,3.5,0.4,4.6c0.2,1.1,0.7,2,1.4,2.6c0.7,0.6,1.7,1,2.9,1.1c1.2,0.2,3,0.3,5.3,0.3c0.9,0,2.1,0,3.6,0s2.7-0.1,3.8-0.2
		c1-0.1,2.1-0.3,3.3-0.7c1.1-0.3,1.9-0.8,2.4-1.3c1.3-1.5,2.6-3.7,4-6.7c1.4-3,2.3-5.2,2.7-6.6H1047.1z"/>
</g>
<rect x="31" y="166.8" fill="#FFFFFF" width="1018" height="81.4"/>
<g>
	<path fill="#0A2E4E" d="M85.4,200.3c0,3.5-1.2,6.3-3.7,8.2s-6,2.9-10.6,2.9h-4.2V225h-4.2v-35H72C80.9,190.1,85.4,193.5,85.4,200.3
		z M66.8,207.8h3.7c3.7,0,6.4-0.6,8-1.7s2.5-3,2.5-5.6c0-2.3-0.8-4-2.3-5.2c-1.5-1.1-4-1.7-7.2-1.7h-4.6V207.8z"/>
	<path fill="#0A2E4E" d="M97,210.5V225h-4.2v-35h9.8c4.4,0,7.6,0.8,9.7,2.5c2.1,1.6,3.1,4.1,3.1,7.4c0,4.6-2.4,7.8-7.2,9.4L118,225
		h-4.9l-8.7-14.5H97z M97,207h5.7c2.9,0,5.1-0.6,6.5-1.7c1.4-1.1,2.1-2.9,2.1-5.1c0-2.3-0.7-4-2.1-5c-1.4-1-3.6-1.5-6.7-1.5H97V207z
		"/>
	<path fill="#0A2E4E" d="M154.9,207.5c0,5.6-1.4,10-4.3,13.2c-2.9,3.2-6.9,4.8-12.1,4.8c-5.3,0-9.3-1.6-12.2-4.7
		c-2.9-3.1-4.3-7.6-4.3-13.3c0-5.7,1.4-10.1,4.3-13.2c2.9-3.1,6.9-4.7,12.2-4.7c5.1,0,9.1,1.6,12,4.8
		C153.4,197.5,154.9,201.9,154.9,207.5z M126.4,207.5c0,4.7,1,8.3,3.1,10.8c2.1,2.4,5.1,3.7,9,3.7c4,0,7-1.2,9-3.7c2-2.4,3-6,3-10.8
		c0-4.7-1-8.3-3-10.7s-5-3.6-8.9-3.6c-4,0-7,1.2-9,3.7C127.4,199.3,126.4,202.8,126.4,207.5z"/>
	<path fill="#0A2E4E" d="M167,225h-4.2v-35h19.9v3.6H167v12.8h14.8v3.6H167V225z"/>
	<path fill="#0A2E4E" d="M208.6,225h-19.9v-35h19.9v3.6h-15.8v11.3h14.8v3.6h-14.8v12.9h15.8V225z"/>
	<path fill="#0A2E4E" d="M236.7,215.7c0,3.1-1.1,5.5-3.4,7.2s-5.4,2.6-9.3,2.6c-4.2,0-7.5-0.5-9.8-1.6V220c1.5,0.6,3.1,1.1,4.8,1.4
		c1.7,0.4,3.4,0.5,5.1,0.5c2.8,0,4.9-0.5,6.3-1.5c1.4-1,2.1-2.5,2.1-4.3c0-1.2-0.2-2.2-0.7-3c-0.5-0.8-1.3-1.5-2.5-2.1
		c-1.2-0.7-2.9-1.4-5.3-2.2c-3.3-1.2-5.7-2.5-7.1-4.1c-1.4-1.6-2.1-3.7-2.1-6.2c0-2.7,1-4.8,3.1-6.4c2.1-1.6,4.8-2.4,8.2-2.4
		c3.6,0,6.8,0.6,9.8,1.9l-1.3,3.5c-3-1.2-5.8-1.8-8.6-1.8c-2.2,0-3.9,0.5-5.2,1.4c-1.2,0.9-1.9,2.2-1.9,3.9c0,1.2,0.2,2.2,0.7,3
		c0.5,0.8,1.2,1.5,2.3,2.1c1.1,0.6,2.7,1.4,5,2.1c3.8,1.3,6.3,2.7,7.7,4.2C236,211.4,236.7,213.3,236.7,215.7z"/>
	<path fill="#0A2E4E" d="M264.2,215.7c0,3.1-1.1,5.5-3.4,7.2s-5.4,2.6-9.3,2.6c-4.2,0-7.5-0.5-9.8-1.6V220c1.5,0.6,3.1,1.1,4.8,1.4
		c1.7,0.4,3.4,0.5,5.1,0.5c2.8,0,4.9-0.5,6.3-1.5c1.4-1,2.1-2.5,2.1-4.3c0-1.2-0.2-2.2-0.7-3c-0.5-0.8-1.3-1.5-2.5-2.1
		c-1.2-0.7-2.9-1.4-5.3-2.2c-3.3-1.2-5.7-2.5-7.1-4.1c-1.4-1.6-2.1-3.7-2.1-6.2c0-2.7,1-4.8,3.1-6.4c2.1-1.6,4.8-2.4,8.2-2.4
		c3.6,0,6.8,0.6,9.8,1.9L262,195c-3-1.2-5.8-1.8-8.6-1.8c-2.2,0-3.9,0.5-5.2,1.4c-1.2,0.9-1.9,2.2-1.9,3.9c0,1.2,0.2,2.2,0.7,3
		c0.5,0.8,1.2,1.5,2.3,2.1c1.1,0.6,2.7,1.4,5,2.1c3.8,1.3,6.3,2.7,7.7,4.2C263.5,211.4,264.2,213.3,264.2,215.7z"/>
	<path fill="#0A2E4E" d="M271.5,225v-35h4.2v35H271.5z"/>
	<path fill="#0A2E4E" d="M316.5,207.5c0,5.6-1.4,10-4.3,13.2c-2.9,3.2-6.9,4.8-12.1,4.8c-5.3,0-9.3-1.6-12.2-4.7
		c-2.9-3.1-4.3-7.6-4.3-13.3c0-5.7,1.4-10.1,4.3-13.2c2.9-3.1,6.9-4.7,12.2-4.7c5.1,0,9.1,1.6,12,4.8
		C315.1,197.5,316.5,201.9,316.5,207.5z M288,207.5c0,4.7,1,8.3,3.1,10.8c2.1,2.4,5.1,3.7,9,3.7c4,0,7-1.2,9-3.7c2-2.4,3-6,3-10.8
		c0-4.7-1-8.3-3-10.7s-5-3.6-8.9-3.6c-4,0-7,1.2-9,3.7C289.1,199.3,288,202.8,288,207.5z"/>
	<path fill="#0A2E4E" d="M352.5,225h-4.7l-19.5-29.4H328c0.3,3.4,0.4,6.6,0.4,9.5V225h-3.8v-35h4.7l19.5,29.2h0.2
		c0-0.4-0.1-1.8-0.2-4.2c-0.1-2.3-0.2-4-0.1-5v-20.1h3.9V225z"/>
	<path fill="#0A2E4E" d="M384.8,225l-4.5-11.1H366l-4.4,11.1h-4.2l14.1-35.1h3.5l14.1,35.1H384.8z M379,210.3l-4.2-10.8
		c-0.5-1.4-1.1-3.1-1.7-5c-0.4,1.5-0.9,3.2-1.5,5l-4.2,10.8H379z"/>
	<path fill="#0A2E4E" d="M394,225v-35h4.2v31.3h15.8v3.7H394z"/>
	<path fill="#0A2E4E" d="M433,190.1h10.1c4.7,0,8.2,0.7,10.3,2.1c2.1,1.4,3.2,3.6,3.2,6.6c0,2.1-0.6,3.8-1.8,5.1
		c-1.2,1.3-2.9,2.2-5.2,2.6v0.2c5.4,0.9,8.1,3.7,8.1,8.4c0,3.1-1.1,5.6-3.2,7.3s-5.2,2.6-9.1,2.6H433V190.1z M437.2,205h6.8
		c2.9,0,5-0.5,6.3-1.4s1.9-2.4,1.9-4.6c0-2-0.7-3.4-2.2-4.2c-1.4-0.9-3.7-1.3-6.8-1.3h-6.1V205z M437.2,208.5v13.1h7.5
		c2.9,0,5.1-0.5,6.5-1.6c1.5-1.1,2.2-2.8,2.2-5.1c0-2.2-0.7-3.8-2.2-4.8s-3.8-1.5-6.8-1.5H437.2z"/>
	<path fill="#0A2E4E" d="M492.5,190.1v22.6c0,4-1.2,7.1-3.7,9.4c-2.5,2.3-5.8,3.4-10.2,3.4c-4.3,0-7.6-1.1-10-3.4
		c-2.4-2.3-3.5-5.5-3.5-9.5v-22.5h4.2v22.8c0,2.9,0.8,5.2,2.4,6.7c1.6,1.6,4,2.3,7.2,2.3c3,0,5.3-0.8,7-2.4c1.6-1.6,2.4-3.8,2.4-6.8
		v-22.8H492.5z"/>
	<path fill="#0A2E4E" d="M501.9,225v-35h4.2v35H501.9z"/>
	<path fill="#0A2E4E" d="M515.9,225v-35h4.2v31.3h15.8v3.7H515.9z"/>
	<path fill="#0A2E4E" d="M570.5,207.2c0,5.8-1.6,10.2-4.8,13.2c-3.2,3.1-7.8,4.6-13.8,4.6h-9.9v-35h11c5.6,0,9.9,1.5,13,4.5
		C568.9,197.6,570.5,201.8,570.5,207.2z M566.1,207.4c0-4.6-1.2-8-3.5-10.3s-5.8-3.5-10.4-3.5h-6v27.9h5.1c5,0,8.7-1.2,11.2-3.6
		S566.1,212,566.1,207.4z"/>
	<path fill="#0A2E4E" d="M578.4,225v-35h4.2v35H578.4z"/>
	<path fill="#0A2E4E" d="M620.3,225h-4.7L596,195.7h-0.2c0.3,3.4,0.4,6.6,0.4,9.5V225h-3.8v-35h4.7l19.5,29.2h0.2
		c0-0.4-0.1-1.8-0.2-4.2c-0.1-2.3-0.2-4-0.1-5v-20.1h3.9V225z"/>
	<path fill="#0A2E4E" d="M645.9,206.7H658v17c-1.9,0.6-3.8,1-5.8,1.3c-2,0.3-4.2,0.5-6.8,0.5c-5.4,0-9.6-1.6-12.6-4.7
		c-3-3.1-4.5-7.6-4.5-13.2c0-3.6,0.7-6.8,2.2-9.6s3.6-4.8,6.4-6.3s6.1-2.2,9.9-2.2c3.8,0,7.4,0.7,10.7,2.1l-1.6,3.6
		c-3.2-1.3-6.3-2-9.3-2c-4.4,0-7.8,1.3-10.2,3.8s-3.7,6.1-3.7,10.6c0,4.7,1.2,8.3,3.5,10.7s5.8,3.7,10.4,3.7c2.5,0,4.9-0.3,7.3-0.8
		v-10.8h-8V206.7z"/>
	<path fill="#0A2E4E" d="M695.5,225l-12.1-31h-0.2c0.2,2.5,0.3,5.4,0.3,8.8V225h-3.8v-35h6.3l11.3,28.9h0.2l11.4-28.9h6.2v35h-4.2
		v-22.5c0-2.6,0.1-5.4,0.3-8.4h-0.2l-12.2,31H695.5z"/>
	<path fill="#0A2E4E" d="M747.4,225l-4.5-11.1h-14.3l-4.4,11.1H720l14.1-35.1h3.5l14.1,35.1H747.4z M741.6,210.3l-4.2-10.8
		c-0.5-1.4-1.1-3.1-1.7-5c-0.4,1.5-0.9,3.2-1.5,5l-4.2,10.8H741.6z"/>
	<path fill="#0A2E4E" d="M756.6,225v-35h4.2v35H756.6z"/>
	<path fill="#0A2E4E" d="M798.5,225h-4.7l-19.5-29.4H774c0.3,3.4,0.4,6.6,0.4,9.5V225h-3.8v-35h4.7l19.5,29.2h0.2
		c0-0.4-0.1-1.8-0.2-4.2c-0.1-2.3-0.2-4-0.1-5v-20.1h3.9V225z"/>
	<path fill="#0A2E4E" d="M819.3,225h-4.2v-31.4h-11.3v-3.6h26.8v3.6h-11.3V225z"/>
	<path fill="#0A2E4E" d="M856,225H836v-35H856v3.6h-15.8v11.3H855v3.6h-14.8v12.9H856V225z"/>
	<path fill="#0A2E4E" d="M891.8,225h-4.7l-19.5-29.4h-0.2c0.3,3.4,0.4,6.6,0.4,9.5V225h-3.8v-35h4.7l19.5,29.2h0.2
		c0-0.4-0.1-1.8-0.2-4.2c-0.1-2.3-0.2-4-0.1-5v-20.1h3.9V225z"/>
	<path fill="#0A2E4E" d="M924.1,225l-4.5-11.1h-14.3L901,225h-4.2l14.1-35.1h3.5l14.1,35.1H924.1z M918.4,210.3l-4.2-10.8
		c-0.5-1.4-1.1-3.1-1.7-5c-0.4,1.5-0.9,3.2-1.5,5l-4.2,10.8H918.4z"/>
	<path fill="#0A2E4E" d="M961.3,225h-4.7L937,195.7h-0.2c0.3,3.4,0.4,6.6,0.4,9.5V225h-3.8v-35h4.7l19.5,29.2h0.2
		c0-0.4-0.1-1.8-0.2-4.2c-0.1-2.3-0.2-4-0.1-5v-20.1h3.9V225z"/>
	<path fill="#0A2E4E" d="M986.4,193.2c-3.9,0-7,1.3-9.3,3.8c-2.3,2.6-3.4,6.1-3.4,10.5c0,4.6,1.1,8.1,3.3,10.6
		c2.2,2.5,5.3,3.7,9.4,3.7c2.5,0,5.3-0.4,8.5-1.3v3.6c-2.5,0.9-5.5,1.4-9.2,1.4c-5.3,0-9.3-1.6-12.2-4.7s-4.3-7.6-4.3-13.3
		c0-3.6,0.7-6.8,2.1-9.5c1.4-2.7,3.4-4.8,6-6.3c2.6-1.5,5.7-2.2,9.2-2.2c3.8,0,7,0.7,9.8,2l-1.8,3.5
		C991.9,193.8,989.2,193.2,986.4,193.2z"/>
	<path fill="#0A2E4E" d="M1022.7,225h-19.9v-35h19.9v3.6h-15.8v11.3h14.8v3.6h-14.8v12.9h15.8V225z"/>
</g>
</svg>
