<svg id="Layer_1" xmlns="http://www.w3.org/2000/svg" width="1024.7" height="247.9" viewBox="0 0 1024.7 247.9"><style>.st0{fill:#10519d}.st1{fill:#080b0b}.st2{fill:#0d2e4e}.st3{fill:#fff}</style><path class="st0" d="M134.8 118.5v6.1c-4.7 5.2-8.7 9.4-12 12.6-3.3 3.2-6.6 6.1-9.8 8.6-3.3 2.5-6 4.4-8.1 5.4-2.2 1.1-4 1.6-5.5 1.6-3.7 0-6.6-1.6-9-4.8-2.3-3.2-3.5-7.4-3.5-12.5 0-5.8 1-11.6 3-17.4 2-5.7 4.9-11.7 8.6-17.8 3.7-6.1 8.4-13 13.9-20.6 4.2-5.6 6.2-8.8 6.2-9.5 0-.4-.1-.8-.4-1.1-.2-.3-.5-.4-.8-.4-.9 0-3.8 2.5-8.7 7.4S97.8 88.4 90.2 97.9s-15.8 20.9-24.6 34c-.5.7-2.1 3.1-4.7 7.1-2.6 4.1-4.5 6.7-5.6 7.9-1.1 1.2-2 1.8-2.8 1.8-1.4 0-2.6-1.7-3.6-5s-1.5-6.8-1.5-10.6c0-2.3.6-4.7 1.9-7.4 1.3-2.6 4-7.4 8.2-14.2 4.2-6.8 7.7-12.6 10.5-17.2 2.8-4.7 5.8-10.4 9.1-17 2.3-4.6 4-8.3 5.2-11.1 1.1-2.7 1.7-5.2 1.7-7.3 0-1.8-.4-2.7-1.3-2.7-1.9 0-5.4 3-10.6 8.9-5.2 5.9-11.6 14.8-19.2 26.4-7.6 11.7-15.6 25.2-23.9 40.6-2.7 5.3-4.6 8.8-5.8 10.6-1.1 1.8-2.4 2.7-3.8 2.7-1.7 0-3.3-2.2-4.9-6.5-1.5-4.4-2.3-7.9-2.3-10.6 0-.9.3-1.8.9-2.9 6.5-10.3 11.9-19 16.1-26.2 4.2-7.2 7.9-14 11.2-20.5 3.3-6.5 5.6-11.8 7.1-16 1.5-4.2 2.2-7.5 2.2-9.9 0-2.5-1-3.8-2.9-3.8-1.6 0-4.3 1.2-8.1 3.6-3.8 2.4-8.6 5.7-14.4 9.8-5.8 4.2-10.5 7.3-14 9.5s-6.1 3.3-7.9 3.3C.8 75.2 0 74.1 0 72c0-1.2.3-4 1-8.5.7-4.4 1.4-7.5 2.2-9.3 1-2.3 3.7-5.4 8-9.3 4.3-3.9 6.6-5.8 7.1-5.8.4 0 .6.2.6.6 0 .2-.2.6-.6 1.1-2 1.9-3.5 3.5-4.5 4.7-1 1.2-1.6 2.6-1.9 4 9-6.4 17.1-11.3 24.3-14.7 7.1-3.4 12.1-5 14.9-5 1.4 0 2.7 1.1 3.9 3.3 1.2 2.2 2.3 4.7 3.2 7.6.9 2.9 1.3 4.8 1.3 5.6 0 3-.6 6.5-1.9 10.6-1.3 4.1-3 8.8-5.2 14.2-2.4 5.8-5.1 12.5-8.4 20.6 2.6-3.9 5-7.5 7.3-10.9 2.3-3.3 4.6-6.6 6.9-9.7 2.3-3.2 4.6-6.3 7-9.6 3.2-4.4 6.8-8.6 10.8-12.6 4-4 7.7-7.3 11.2-9.8 3.5-2.5 5.8-3.8 7.1-3.8 1.7 0 3.3 1.1 4.6 3.4 1.4 2.3 2 4.7 2 7.2 0 1.7-.9 4.9-2.8 9.7-1.9 4.8-4.6 10.9-8.2 18.4-3.6 7.5-8.4 17.1-14.3 28.9 5.6-7.1 11.5-14.4 17.6-21.8 6.1-7.5 10.6-13 13.6-16.4 3-3.4 5.4-6.1 7.4-7.9 2.7-2.5 5.4-5.1 8.2-7.9 2.7-2.8 4.9-5.1 6.5-6.7 1.6-1.6 3-2.9 4.2-3.8 1.2-.9 2.4-1.3 3.4-1.3 1.3 0 2.9 1.8 4.9 5.3 2 3.5 2.9 5.8 2.9 6.8 0 1.2-.6 2.7-1.7 4.4-1.2 1.7-3.6 4.9-7.2 9.5-6.7 8.5-12.6 17.1-17.5 25.8s-8.7 16.6-11.2 23.8c-2.5 7.2-3.8 12.8-3.8 17 0 2.6.4 4.4 1.2 5.6.8 1.2 2.1 1.8 3.8 1.8 1.6 0 3-.4 4.4-1.1 1.4-.7 2.9-1.7 4.5-3 1.7-1.3 3.2-2.5 4.7-3.7 2.1-1.5 4.1-3 6.1-4.7 2-1.7 3.6-3 4.7-3.9 1.2-1.1 2-1.8 2.5-2.2z"/><path class="st0" d="M143 103.2c7.5-8.1 14.8-14.1 21.9-18 7.1-3.9 12.5-5.9 16.4-5.9 1 0 2 .5 2.9 1.5.9 1 1.6 2.2 2.1 3.6.5 1.3.8 2.3.8 3 0 1.1-.3 1.8-1 2.3-.7.5-1.9 1.1-3.6 1.8.3.9.8 2.1 1.3 3.6s1 2.6 1.3 3.6c.3.9.4 1.7.4 2.4 0 1.4-1.2 4-3.6 7.9-2.4 3.8-4.1 6.7-5 8.5-1 1.8-1.4 4-1.4 6.7 0 4.3 1.7 6.5 5 6.5 3.5 0 8.9-3.8 16.2-11.5v5.4c-12.5 16.4-21.4 24.6-26.8 24.6-1.9 0-3.3-.7-4.1-2.2s-1.2-3.7-1.2-6.6c0-4.6 1.4-11.3 4.2-20.1-7.2 9.5-12.6 16.2-16.1 20.2-3.5 4-6.4 6-8.7 6-1.1 0-2.4-1.1-4.1-3.3-1.6-2.2-3.1-5.1-4.3-8.6-1.3-3.5-1.9-7.2-1.9-11 0-2.7.2-5 .7-6.9.4-1.8 1.3-3.7 2.6-5.7 1.1-2.1 3.2-4.7 6-7.8zm35.5-9.7c-12.8 7-22 12.9-27.5 17.7-5.5 4.9-8.2 9.9-8.2 15 0 1.9.3 3.4.8 4.6.5 1.2 1.3 1.8 2.2 1.8.5 0 1.5-.4 2.9-1.2 5.2-3.6 9.9-8.3 14.2-14.2 4.4-5.8 9.6-13.7 15.6-23.7z"/><path class="st0" d="M195.6 121.3v-2.1c12.7-15.9 21.5-27 26.3-33.4 1.1-7.2 3.7-10.8 7.9-10.8 1 0 2.2.4 3.3 1.1l.4 1.7c-.2.7-.3 1.7-.3 3 0 1.1.4 3.2 1.1 6.2.7 3 1.3 5.5 1.7 7.6.4 2 .6 4.4.6 6.9 0 3.9-.7 7.6-2.2 11.1-1.5 3.5-3.6 6.9-6.4 10.2-2.8 3.2-6.4 6.6-10.9 10 1.8.4 3.2.5 4.2.5 2 0 4.2-.6 6.6-1.8 2.3-1.2 4.7-2.8 7.2-4.8 2.4-2 5.3-4.6 8.6-7.9v5.9c-6.3 7.3-12 12.9-17 16.6-5 3.8-9.3 5.7-12.9 5.7-4.6 0-8.9-2.3-12.9-7-2.3-2.8-3.8-5.5-4.3-8.1-.7-2.7-1-6.2-1-10.6zm27.7-13.4L222 95.1c-3.1 4.1-9.6 12-19.6 23.6 3 .8 5 1.8 6.1 3.1 1.1 1.3 2.6 3.8 4.6 7.5 3.4-1.6 5.9-3.9 7.7-6.7 1.8-2.8 2.7-6.7 2.7-11.6v-1.6c-.2-.6-.2-1-.2-1.5z"/><path class="st0" d="M269.3 73.3h3.2c2.6-5.6 5-9.5 7.1-11.8 2.1-2.3 4.5-3.5 7.3-3.5 2.7 0 4.1.7 4.1 2.2 0 .7-1.1 2.6-3.2 5.7s-3.7 5.7-4.8 7.8c1.7.2 3.2.4 4.5.6 1.3.2 2.3.3 3.1.4-2.8 6.2-6.4 12.5-10.6 19-1.4-.1-2.5-.2-3.5-.3-.9-.1-1.9-.2-2.9-.3-1-.1-2.1-.2-3.5-.3-2.7 5.1-4.9 9.6-6.7 13.6-1.8 4-3.2 7.7-4.2 11s-1.4 6.5-1.4 9.5c0 4 1.4 6.1 4.1 6.1 1.9 0 4.3-1.2 7.4-3.6s7.1-6 12.2-10.9v5.9c-13.3 17.1-23.2 25.7-29.6 25.7-2.2 0-4-1-5.4-3.1-1.4-2-2-4.7-2-7.9 0-2.2.4-4.7 1.1-7.7.8-3 2.1-7.5 4.1-13.5-.7.7-1.3 1.4-2 2.1-.6.7-1.2 1.3-1.7 1.8-.5.6-1.1 1.1-1.7 1.8-.6.6-1.2 1.2-1.8 1.9v-6.1c5.2-5.1 11.5-14.2 18.8-27.1-.7-.1-1.4-.1-2.1-.1h-2.3c-2.9 0-5.1.2-6.5.7-.6.2-1.1.4-1.7.6-.5.2-.9.3-1.1.3-.2 0-.3-.2-.3-.5 0-1.9 1-4.8 3-8.7 1.6-3.3 3.2-5.7 4.6-7.3 1.5-1.6 3.2-2.6 5.3-3.2 2.3-.5 5.3-.8 9.1-.8z"/><path class="st0" d="M293.1 122v2.2c0 3.5.7 6.1 2.1 8.1 1.4 1.9 3.3 2.9 5.6 2.9 2.4 0 4.9-.7 7.5-2 2.6-1.3 5.2-3.1 7.7-5.4 2.6-2.2 5.7-5.2 9.4-8.9v5.4c-5.6 8-10.8 14-15.7 18.3-4.9 4.2-9.9 6.4-14.9 6.4-4.4 0-7.9-2-10.5-6.1-2.6-4-3.9-9.6-3.9-16.6 0-6.1 1.2-11.7 3.6-16.7s6.4-10.3 11.9-15.8c3.8-3.8 7.5-6.7 11.2-8.6s7-2.9 9.9-2.9c2.3 0 4.2.6 5.5 1.9 1.4 1.3 2 3.1 2 5.7 0 3.7-1.2 7.4-3.5 11-2.3 3.7-5.9 7.3-10.6 10.9-4.5 3.4-10.4 6.9-17.3 10.2zm.7-5.7c4.4-2 8.3-4.6 11.4-7.6 3.2-3 5.5-5.9 7-8.7 1.5-2.8 2.3-4.8 2.3-6.1 0-1.3-.5-2-1.6-2-.9 0-2.3.7-4.3 2s-4 3.1-6.1 5.3c-2.1 2.2-3.9 4.7-5.5 7.6-1.6 2.9-2.7 6.1-3.2 9.5z"/><path class="st0" d="M324.8 125.6v-5.7c2.7-3.7 4.7-6.9 6.1-9.6-1.6-.6-2.7-1.4-3.4-2.4-.7-.9-1.1-2.3-1.1-4.2 0-2.1.7-4.8 2.2-8 1.5-3.2 3.3-6.2 5.5-9s4.2-4.6 5.9-5.4c.7-.4 1.4-.6 2-.6 1 0 1.5.6 1.5 1.7 0 1-.8 3-2.3 6.1 10.2-1.9 16.6-2.8 19.3-2.8 1 0 1.8.1 2.1.4.8.5 1.5 1.8 2.1 3.7.5 1.9.8 3.9.8 5.8 0 1.2-.5 2.6-1.4 4-.9 1.4-2.5 3.5-4.7 6.3-2.6 3.3-4.8 7-6.6 10.9-1.8 3.9-2.7 6.9-2.7 8.9 0 2.8 1.4 4.1 4.3 4.1 3 0 8.3-3.6 15.7-10.9v5.9c-4.1 5.1-7.5 9.1-10.2 12-2.7 2.9-5.1 5.2-7.4 7-2.3 1.7-4.3 2.6-6.1 2.6-2.1 0-3.8-1.1-5.2-3.4s-2.1-5.5-2.1-9.8c0-2.5.5-5.4 1.6-8.6 1.1-3.2 2.7-6.7 4.8-10.5 2.1-3.8 4.5-7.5 7.1-11.3-1.4.4-2.9.7-4.7 1.1-1.7.4-3.6.8-5.5 1.2-1.9.4-3.4.7-4.4 1-2.9 7-7.4 13.6-13.2 19.5z"/><path class="st1" d="M461 147.5h-26v-3.3c.9 0 2.1-.1 3.6-.3 1.5-.2 2.5-.4 3-.8.9-.6 1.5-1.2 1.9-2 .4-.7.6-1.7.6-2.8V91h-.6l-20 55.5h-2.1l-19.1-56.6h-.5v38.9c0 3.8.2 6.6.6 8.6.4 2 1.1 3.4 2 4.2.6.6 1.9 1.3 3.8 1.8s3.1.9 3.7.9v3.3h-23.7v-3.3c1.2-.1 2.5-.4 3.9-.7 1.4-.3 2.4-.8 3.2-1.5 1-.9 1.6-2.2 2-3.9.4-1.8.5-4.7.5-8.9V95.9c0-1.9-.2-3.5-.6-4.7-.4-1.2-1-2.2-1.8-3-.9-.8-1.9-1.4-3.1-1.8-1.2-.4-2.5-.6-3.7-.7v-3.3h20l16.8 48.9 14.4-40.9c.5-1.5 1-3.1 1.3-4.7.4-1.6.6-2.7.6-3.3h19.2v3.3c-.8 0-1.8.2-3 .4s-2.1.5-2.6.7c-.9.4-1.6 1-1.9 1.8-.3.9-.5 1.8-.5 2.8v46.9c0 1.1.2 2 .5 2.7s1 1.4 1.9 1.9c.5.3 1.4.6 2.7.8 1.3.3 2.3.4 3 .4v3.4zm62.7 0h-24.4v-3.3c2.2-.2 3.9-.5 5.4-.9 1.4-.5 2.1-1 2.1-1.7 0-.3 0-.6-.1-1s-.1-.7-.2-1.1l-4.9-14.6H481c-.8 2.1-1.4 4-1.9 5.6s-.9 3.1-1.3 4.4c-.4 1.3-.6 2.4-.7 3.2-.1.8-.2 1.5-.2 2 0 1.2.9 2.2 2.6 2.8 1.7.7 3.7 1.1 5.9 1.2v3.3h-22.1v-3.3c.7-.1 1.6-.2 2.7-.5s2-.7 2.7-1.2c1.1-.8 2-1.7 2.6-2.6.6-.9 1.2-2.1 1.8-3.7 3-8.2 6.2-17.3 9.8-27.5 3.6-10.2 6.7-19.2 9.5-27.2h3.3l19.6 56.1c.4 1.2.9 2.2 1.4 2.9.5.7 1.3 1.5 2.2 2.2.6.4 1.5.8 2.5 1.1 1 .3 1.9.5 2.6.5v3.3zm-23.6-26.6l-8.9-25.3-8.8 25.3h17.7zm51.4 26.6H525v-3.3c.7-.1 1.8-.2 3.2-.3 1.4-.1 2.4-.3 3-.5.9-.4 1.6-.9 2-1.6s.6-1.6.6-2.9V91.8c0-1.1-.2-2-.5-2.7-.3-.7-1-1.3-2.2-1.8-.8-.4-1.9-.7-3.1-1-1.3-.3-2.3-.5-3.1-.6v-3.3h26.5v3.3c-.9 0-1.9.1-3.1.3-1.2.2-2.2.5-3.1.8-1 .4-1.8 1-2.1 1.8-.4.8-.5 1.7-.5 2.8v47.1c0 1 .2 1.9.6 2.7.4.8 1.1 1.4 2.1 1.9.6.2 1.5.5 2.8.8 1.3.3 2.4.5 3.3.5v3.1zm67.7-61.8c-.8 0-2 .3-3.6.7s-2.7.9-3.4 1.4c-1 .8-1.7 2.2-2 4.4-.3 2.2-.5 4.9-.5 8.3v47.7H606l-35.6-53.3v33.6c0 3.8.2 6.7.6 8.7.4 2 1.1 3.5 2 4.3.6.7 1.9 1.3 3.9 1.9 2 .6 3.3.9 3.9.9v3.3h-24.1v-3.3c.7-.1 2-.4 3.8-.9 1.8-.5 2.9-1 3.3-1.4 1-.9 1.6-2.2 2-3.9.4-1.8.5-4.8.5-9V96.9c0-1.4-.2-2.8-.7-4.2-.4-1.4-1-2.5-1.8-3.3-1-1-2.3-1.9-4-2.6-1.7-.7-3.1-1.1-4.1-1.2v-3.3h16.8l33 49.6v-31c0-3.8-.2-6.7-.7-8.7-.4-2-1.1-3.4-1.9-4.1-.8-.6-2-1.1-3.8-1.7-1.8-.6-3.1-.9-4-.9v-3.3H619v3.5zm52.5 14.4h-2.9c-.2-1.1-.7-2.4-1.3-3.9s-1.4-2.9-2.2-4.3c-.8-1.4-1.7-2.6-2.7-3.7s-1.9-1.7-2.8-1.8c-.9-.1-1.9-.2-3.2-.3-1.3-.1-2.5-.1-3.6-.1h-2.4v52.1c0 1 .2 1.9.6 2.8.4.8 1.1 1.5 2 1.9.5.2 1.5.5 3.1.9s2.8.6 3.7.6v3.3h-27.7v-3.3c.8-.1 2-.2 3.5-.4 1.6-.2 2.7-.4 3.3-.7.9-.4 1.6-1 2-1.7.4-.7.6-1.8.6-3V86h-2.4c-.9 0-1.9 0-3.2.1s-2.5.1-3.6.3c-.9.1-1.9.7-2.8 1.8-1 1.1-1.9 2.3-2.7 3.7-.8 1.4-1.6 2.8-2.2 4.4-.6 1.5-1.1 2.8-1.3 3.8h-2.9V82.4h51.2v17.7zm54.1 28.2l-1.1 19.2h-48.8v-3.3c.8-.1 1.9-.2 3.3-.4s2.3-.4 2.7-.6c.9-.5 1.5-1.1 1.8-1.8.3-.7.5-1.7.5-2.8V91.9c0-1-.2-1.9-.5-2.7s-.9-1.4-1.9-1.9c-.7-.4-1.7-.7-3-1.1-1.3-.3-2.3-.5-3-.6v-3.3h45.5V98h-3.1c-.6-2.3-1.7-4.8-3.6-7.4s-3.6-4-5.2-4.3c-.9-.1-1.9-.2-3.1-.3-1.2-.1-2.5-.1-4.1-.1H693v25.9h6.6c2.1 0 3.7-.2 4.7-.7s1.8-1.2 2.6-2.2c.6-.9 1.1-2.1 1.6-3.6.4-1.5.7-2.9.8-4.2h3.1v25.5h-3.1c-.1-1.5-.4-3-.9-4.7-.5-1.6-1-2.8-1.5-3.6-.9-1.2-1.8-2-2.9-2.3-1.1-.4-2.5-.6-4.3-.6h-6.6v19.5c0 2 .1 3.5.4 4.6.2 1.1.7 2 1.4 2.6.7.6 1.7 1 2.9 1.1 1.2.2 3 .3 5.3.3h3.6c1.5 0 2.7-.1 3.8-.2 1-.1 2.1-.3 3.3-.7 1.1-.3 1.9-.8 2.4-1.3 1.3-1.5 2.6-3.7 4-6.7s2.3-5.2 2.7-6.6h2.9zm66.3-42.6c-.8 0-2 .3-3.6.7s-2.7.9-3.4 1.4c-1 .8-1.7 2.2-2 4.4-.3 2.2-.5 4.9-.5 8.3v47.7H779l-35.6-53.3v33.6c0 3.8.2 6.7.6 8.7.4 2 1.1 3.5 2 4.3.6.7 1.9 1.3 3.9 1.9 2 .6 3.3.9 3.9.9v3.3h-24.1v-3.3c.7-.1 2-.4 3.8-.9 1.8-.5 2.9-1 3.3-1.4 1-.9 1.6-2.2 2-3.9.4-1.8.5-4.8.5-9V96.9c0-1.4-.2-2.8-.7-4.2-.4-1.4-1-2.5-1.8-3.3-1-1-2.3-1.9-4-2.6-1.7-.7-3.1-1.1-4.1-1.2v-3.3h16.8l33 49.6v-31c0-3.8-.2-6.7-.7-8.7-.4-2-1.1-3.4-1.9-4.1-.8-.6-2-1.1-3.8-1.7-1.8-.6-3.1-.9-4-.9v-3.3H792v3.5zm59.6 61.8h-24.4v-3.3c2.2-.2 3.9-.5 5.4-.9 1.4-.5 2.1-1 2.1-1.7 0-.3 0-.6-.1-1s-.1-.7-.2-1.1l-4.9-14.6H809c-.8 2.1-1.4 4-1.9 5.6s-.9 3.1-1.3 4.4c-.4 1.3-.6 2.4-.7 3.2-.1.8-.2 1.5-.2 2 0 1.2.9 2.2 2.6 2.8 1.7.7 3.7 1.1 5.9 1.2v3.3h-22.1v-3.3c.7-.1 1.6-.2 2.7-.5s2-.7 2.7-1.2c1.1-.8 2-1.7 2.6-2.6.6-.9 1.2-2.1 1.8-3.7 3-8.2 6.2-17.3 9.8-27.5 3.6-10.2 6.7-19.2 9.5-27.2h3.3l19.6 56.1c.4 1.2.9 2.2 1.4 2.9.5.7 1.3 1.5 2.2 2.2.6.4 1.5.8 2.5 1.1 1 .3 1.9.5 2.6.5v3.3zM828 120.9l-8.9-25.3-8.8 25.3H828z"/><path class="st1" d="M914.1 85.7c-.8 0-2 .3-3.6.7s-2.7.9-3.4 1.4c-1 .8-1.7 2.2-2 4.4-.3 2.2-.5 4.9-.5 8.3v47.7H901l-35.6-53.3v33.6c0 3.8.2 6.7.6 8.7.4 2 1.1 3.5 2 4.3.6.7 1.9 1.3 3.9 1.9 2 .6 3.3.9 3.9.9v3.3h-24.1v-3.3c.7-.1 2-.4 3.8-.9 1.8-.5 2.9-1 3.3-1.4 1-.9 1.6-2.2 2-3.9.4-1.8.5-4.8.5-9V96.9c0-1.4-.2-2.8-.7-4.2-.4-1.4-1-2.5-1.8-3.3-1-1-2.3-1.9-4-2.6-1.7-.7-3.1-1.1-4.1-1.2v-3.3h16.8l33 49.6v-31c0-3.8-.2-6.7-.7-8.7-.4-2-1.1-3.4-1.9-4.1-.8-.6-2-1.1-3.8-1.7-1.8-.6-3.1-.9-4-.9v-3.3H914v3.5zm30.6 63.4c-3.5 0-6.9-.8-10.1-2.3s-6.1-3.7-8.5-6.6c-2.5-2.9-4.4-6.4-5.9-10.5s-2.2-8.8-2.2-14c0-5.2.7-9.9 2.2-14.2 1.4-4.2 3.4-7.9 6-10.9 2.5-3 5.5-5.4 8.9-7 3.4-1.7 7.1-2.5 11-2.5 2.9 0 5.5.4 7.9 1.2 2.3.8 4.6 1.9 6.7 3.3l1.7-3.1h3.3l.4 23.2h-3.4c-.4-2.3-1.1-4.7-2-7.4-.9-2.6-1.9-4.9-3.1-6.7-1.3-2.1-2.9-3.7-4.7-4.9-1.8-1.2-3.9-1.8-6.2-1.8-2.7 0-5.2.7-7.5 2s-4.3 3.3-6 5.8c-1.6 2.5-2.9 5.6-3.8 9.5-.9 3.8-1.4 8.1-1.4 12.8 0 4.2.5 8 1.4 11.5 1 3.5 2.3 6.5 4.1 9.2 1.8 2.6 3.9 4.6 6.3 6.1s5.1 2.2 8.1 2.2c2.2 0 4.3-.4 6.2-1.2 1.9-.8 3.5-1.8 4.9-3.1 1.4-1.3 2.6-2.9 3.6-4.6 1-1.7 1.9-3.6 2.6-5.6l3.1 1.7c-2.4 6.5-5.5 11.1-9.4 13.8-4.1 2.7-8.8 4.1-14.2 4.1zm78-20.8l-1.1 19.2h-48.8v-3.3c.8-.1 1.9-.2 3.3-.4s2.3-.4 2.7-.6c.9-.5 1.5-1.1 1.8-1.8.3-.7.5-1.7.5-2.8V91.9c0-1-.2-1.9-.5-2.7s-.9-1.4-1.9-1.9c-.7-.4-1.7-.7-3-1.1-1.3-.3-2.3-.5-3-.6v-3.3h45.5V98h-3.1c-.6-2.3-1.7-4.8-3.6-7.4s-3.6-4-5.2-4.3c-.9-.1-1.9-.2-3.1-.3-1.2-.1-2.5-.1-4.1-.1H990v25.9h6.6c2.1 0 3.7-.2 4.7-.7s1.8-1.2 2.6-2.2c.6-.9 1.1-2.1 1.6-3.6.4-1.5.7-2.9.8-4.2h3.1v25.5h-3.1c-.1-1.5-.4-3-.9-4.7-.5-1.6-1-2.8-1.5-3.6-.9-1.2-1.8-2-2.9-2.3-1.1-.4-2.5-.6-4.3-.6H990v19.5c0 2 .1 3.5.4 4.6.2 1.1.7 2 1.4 2.6.7.6 1.7 1 2.9 1.1 1.2.2 3 .3 5.3.3h3.6c1.5 0 2.7-.1 3.8-.2 1-.1 2.1-.3 3.3-.7 1.1-.3 1.9-.8 2.4-1.3 1.3-1.5 2.6-3.7 4-6.7s2.3-5.2 2.7-6.6h2.9z"/><path class="st2" d="M6.7 166.5h1018v81.4H6.7z"/><path class="st3" d="M61 199.9c0 3.5-1.2 6.3-3.7 8.2s-6 2.9-10.6 2.9h-4.2v13.8h-4.2v-35h9.3c9-.1 13.4 3.3 13.4 10.1zm-18.5 7.6h3.7c3.7 0 6.4-.6 8-1.7s2.5-3 2.5-5.6c0-2.3-.8-4-2.3-5.2-1.5-1.1-4-1.7-7.2-1.7h-4.6v14.2zm30.2 2.7v14.5h-4.2v-35h9.8c4.4 0 7.6.8 9.7 2.5 2.1 1.6 3.1 4.1 3.1 7.4 0 4.6-2.4 7.8-7.2 9.4l9.7 15.7h-4.9L80 210.2h-7.3zm0-3.5h5.7c2.9 0 5.1-.6 6.5-1.7 1.4-1.1 2.1-2.9 2.1-5.1 0-2.3-.7-4-2.1-5-1.4-1-3.6-1.5-6.7-1.5h-5.4v13.3zm57.8.5c0 5.6-1.4 10-4.3 13.2-2.9 3.2-6.9 4.8-12.1 4.8-5.3 0-9.3-1.6-12.2-4.7-2.9-3.1-4.3-7.6-4.3-13.3 0-5.7 1.4-10.1 4.3-13.2 2.9-3.1 6.9-4.7 12.2-4.7 5.1 0 9.1 1.6 12 4.8 3 3.1 4.4 7.5 4.4 13.1zm-28.5 0c0 4.7 1 8.3 3.1 10.8 2.1 2.4 5.1 3.7 9 3.7 4 0 7-1.2 9-3.7 2-2.4 3-6 3-10.8 0-4.7-1-8.3-3-10.7s-5-3.6-8.9-3.6c-4 0-7 1.2-9 3.7-2.1 2.4-3.2 5.9-3.2 10.6zm40.7 17.5h-4.2v-35h19.9v3.6h-15.8v12.8h14.8v3.6h-14.8v15zm41.6 0h-19.9v-35h19.9v3.6h-15.8v11.3h14.8v3.6h-14.8v12.9h15.8v3.6zm28.1-9.3c0 3.1-1.1 5.5-3.4 7.2s-5.4 2.6-9.3 2.6c-4.2 0-7.5-.5-9.8-1.6v-3.9c1.5.6 3.1 1.1 4.8 1.4 1.7.4 3.4.5 5.1.5 2.8 0 4.9-.5 6.3-1.5 1.4-1 2.1-2.5 2.1-4.3 0-1.2-.2-2.2-.7-3-.5-.8-1.3-1.5-2.5-2.1-1.2-.7-2.9-1.4-5.3-2.2-3.3-1.2-5.7-2.5-7.1-4.1-1.4-1.6-2.1-3.7-2.1-6.2 0-2.7 1-4.8 3.1-6.4 2.1-1.6 4.8-2.4 8.2-2.4 3.6 0 6.8.6 9.8 1.9l-1.3 3.5c-3-1.2-5.8-1.8-8.6-1.8-2.2 0-3.9.5-5.2 1.4-1.2.9-1.9 2.2-1.9 3.9 0 1.2.2 2.2.7 3 .5.8 1.2 1.5 2.3 2.1 1.1.6 2.7 1.4 5 2.1 3.8 1.3 6.3 2.7 7.7 4.2 1.4 1.4 2.1 3.3 2.1 5.7zm27.5 0c0 3.1-1.1 5.5-3.4 7.2s-5.4 2.6-9.3 2.6c-4.2 0-7.5-.5-9.8-1.6v-3.9c1.5.6 3.1 1.1 4.8 1.4 1.7.4 3.4.5 5.1.5 2.8 0 4.9-.5 6.3-1.5 1.4-1 2.1-2.5 2.1-4.3 0-1.2-.2-2.2-.7-3-.5-.8-1.3-1.5-2.5-2.1-1.2-.7-2.9-1.4-5.3-2.2-3.3-1.2-5.7-2.5-7.1-4.1-1.4-1.6-2.1-3.7-2.1-6.2 0-2.7 1-4.8 3.1-6.4 2.1-1.6 4.8-2.4 8.2-2.4 3.6 0 6.8.6 9.8 1.9l-1.3 3.5c-3-1.2-5.8-1.8-8.6-1.8-2.2 0-3.9.5-5.2 1.4-1.2.9-1.9 2.2-1.9 3.9 0 1.2.2 2.2.7 3 .5.8 1.2 1.5 2.3 2.1 1.1.6 2.7 1.4 5 2.1 3.8 1.3 6.3 2.7 7.7 4.2 1.4 1.4 2.1 3.3 2.1 5.7zm7.3 9.3v-35h4.2v35h-4.2zm45-17.5c0 5.6-1.4 10-4.3 13.2-2.9 3.2-6.9 4.8-12.1 4.8-5.3 0-9.3-1.6-12.2-4.7-2.9-3.1-4.3-7.6-4.3-13.3 0-5.7 1.4-10.1 4.3-13.2 2.9-3.1 6.9-4.7 12.2-4.7 5.1 0 9.1 1.6 12 4.8 3 3.1 4.4 7.5 4.4 13.1zm-28.5 0c0 4.7 1 8.3 3.1 10.8 2.1 2.4 5.1 3.7 9 3.7 4 0 7-1.2 9-3.7 2-2.4 3-6 3-10.8 0-4.7-1-8.3-3-10.7s-5-3.6-8.9-3.6c-4 0-7 1.2-9 3.7-2.2 2.4-3.2 5.9-3.2 10.6zm64.4 17.5h-4.7l-19.5-29.4h-.2c.3 3.4.4 6.6.4 9.5v19.9h-3.8v-35h4.7l19.5 29.2h.2c0-.4-.1-1.8-.2-4.2-.1-2.3-.2-4-.1-5v-20.1h3.9v35.1zm32.3 0l-4.5-11.1h-14.3l-4.4 11.1H333l14.1-35.1h3.5l14.1 35.1h-4.3zm-5.7-14.8l-4.2-10.8c-.5-1.4-1.1-3.1-1.7-5-.4 1.5-.9 3.2-1.5 5l-4.2 10.8h11.6zm15 14.8v-35h4.2V221h15.8v3.7h-20zm39-35h10.1c4.7 0 8.2.7 10.3 2.1 2.1 1.4 3.2 3.6 3.2 6.6 0 2.1-.6 3.8-1.8 5.1-1.2 1.3-2.9 2.2-5.2 2.6v.2c5.4.9 8.1 3.7 8.1 8.4 0 3.1-1.1 5.6-3.2 7.3s-5.2 2.6-9.1 2.6h-12.5v-34.9zm4.1 15h6.8c2.9 0 5-.5 6.3-1.4s1.9-2.4 1.9-4.6c0-2-.7-3.4-2.2-4.2-1.4-.9-3.7-1.3-6.8-1.3h-6.1v11.5zm0 3.5v13.1h7.5c2.9 0 5.1-.5 6.5-1.6 1.5-1.1 2.2-2.8 2.2-5.1 0-2.2-.7-3.8-2.2-4.8s-3.8-1.5-6.8-1.5h-7.2zm55.3-18.5v22.6c0 4-1.2 7.1-3.7 9.4-2.5 2.3-5.8 3.4-10.2 3.4-4.3 0-7.6-1.1-10-3.4-2.4-2.3-3.5-5.5-3.5-9.5v-22.5h4.2v22.8c0 2.9.8 5.2 2.4 6.7 1.6 1.6 4 2.3 7.2 2.3 3 0 5.3-.8 7-2.4 1.6-1.6 2.4-3.8 2.4-6.8v-22.8h4.2zm9.5 35v-35h4.2v35h-4.2zm14 0v-35h4.2V221h15.8v3.7h-20zm54.5-17.8c0 5.8-1.6 10.2-4.8 13.2-3.2 3.1-7.8 4.6-13.8 4.6h-9.9v-35h11c5.6 0 9.9 1.5 13 4.5 3 3.1 4.5 7.3 4.5 12.7zm-4.4.1c0-4.6-1.2-8-3.5-10.3s-5.8-3.5-10.4-3.5h-6v27.9h5.1c5 0 8.7-1.2 11.2-3.6s3.6-5.8 3.6-10.5zm12.4 17.7v-35h4.2v35h-4.2zm41.9 0h-4.7l-19.5-29.4h-.2c.3 3.4.4 6.6.4 9.5v19.9h-3.8v-35h4.7l19.5 29.2h.2c0-.4-.1-1.8-.2-4.2-.1-2.3-.2-4-.1-5v-20.1h3.9v35.1zm25.6-18.3h12.2v17c-1.9.6-3.8 1-5.8 1.3-2 .3-4.2.5-6.8.5-5.4 0-9.6-1.6-12.6-4.7s-4.5-7.6-4.5-13.2c0-3.6.7-6.8 2.2-9.6s3.6-4.8 6.4-6.3 6.1-2.2 9.9-2.2c3.8 0 7.4.7 10.7 2.1l-1.6 3.6c-3.2-1.3-6.3-2-9.3-2-4.4 0-7.8 1.3-10.2 3.8s-3.7 6.1-3.7 10.6c0 4.7 1.2 8.3 3.5 10.7s5.8 3.7 10.4 3.7c2.5 0 4.9-.3 7.3-.8V210h-8v-3.6zm49.5 18.3l-12.1-31h-.2c.2 2.5.3 5.4.3 8.8v22.3h-3.8v-35h6.3l11.3 28.9h.2l11.4-28.9h6.2v35h-4.2v-22.5c0-2.6.1-5.4.3-8.4h-.2l-12.2 31h-3.3zm51.9 0l-4.5-11.1h-14.3l-4.4 11.1h-4.2l14.1-35.1h3.5l14.1 35.1H723zm-5.7-14.8l-4.2-10.8c-.5-1.4-1.1-3.1-1.7-5-.4 1.5-.9 3.2-1.5 5l-4.2 10.8h11.6zm14.9 14.8v-35h4.2v35h-4.2zm42 0h-4.7L750 195.3h-.2c.3 3.4.4 6.6.4 9.5v19.9h-3.8v-35h4.7l19.5 29.2h.2c0-.4-.1-1.8-.2-4.2-.1-2.3-.2-4-.1-5v-20.1h3.9v35.1zm20.8 0h-4.2v-31.4h-11.3v-3.6h26.8v3.6H795v31.4zm36.6 0h-19.9v-35h19.9v3.6h-15.8v11.3h14.8v3.6h-14.8v12.9h15.8v3.6zm35.9 0h-4.7l-19.5-29.4h-.3c.3 3.4.4 6.6.4 9.5v19.9h-3.8v-35h4.7l19.5 29.2h.2c0-.4-.1-1.8-.2-4.2-.1-2.3-.2-4-.1-5v-20.1h3.9v35.1zm32.3 0l-4.5-11.1H881l-4.4 11.1h-4.2l14.1-35.1h3.5l14.1 35.1h-4.3zm-5.7-14.8l-4.2-10.8c-.5-1.4-1.1-3.1-1.7-5-.4 1.5-.9 3.2-1.5 5l-4.2 10.8h11.6zm42.9 14.8h-4.7l-19.5-29.4h-.2c.3 3.4.4 6.6.4 9.5v19.9h-4v-35h4.7l19.5 29.2h.2c0-.4-.1-1.8-.2-4.2-.1-2.3-.2-4-.1-5v-20.1h3.9v35.1zm25.1-31.8c-3.9 0-7 1.3-9.3 3.8-2.3 2.6-3.4 6.1-3.4 10.5 0 4.6 1.1 8.1 3.3 10.6 2.2 2.5 5.3 3.7 9.4 3.7 2.5 0 5.3-.4 8.5-1.3v3.6c-2.5.9-5.5 1.4-9.2 1.4-5.3 0-9.3-1.6-12.2-4.7s-4.3-7.6-4.3-13.3c0-3.6.7-6.8 2.1-9.5 1.4-2.7 3.4-4.8 6-6.3s5.7-2.2 9.2-2.2c3.8 0 7 .7 9.8 2l-1.8 3.5c-2.7-1.2-5.4-1.8-8.1-1.8zm36.2 31.8h-19.9v-35h19.9v3.6h-15.8v11.3h14.8v3.6h-14.8v12.9h15.8v3.6z"/></svg>